<svg width="24" height="24" viewBox="0 0 24 24" fill="none" xmlns="http://www.w3.org/2000/svg">
<g id="Icon">
<path id="Vector" fill-rule="evenodd" clip-rule="evenodd" d="M15.7894 5.01845C15.3246 4.89923 15.0307 4.60986 14.4743 4.58197C14.4576 4.48154 14.2897 4.28593 14.2307 4.38798C13.929 4.29664 12.8314 4.31604 12.5255 4C12.3631 4 12.2007 4 12.0385 4C12.1518 4.1168 11.7525 4.22147 11.6488 4.14549C11.6192 4.12387 11.9701 4.04446 11.7462 4C11.7137 4 11.6813 4 11.6488 4C11.3128 4.10528 10.9131 4.33423 10.577 4.14549C9.49868 4.46538 8.0822 4.77758 7.36157 5.74592C7.18903 5.74047 7.4651 5.58568 7.31285 5.60043C5.49444 6.93472 4.13966 9.0074 4 11.9536C4 12.0506 4 12.1476 4 12.2446C4.17478 13.8255 4.41532 15.2163 5.26668 16.3186C5.33813 16.4328 5.36939 16.4088 5.3154 16.5609C6.68296 18.3586 8.36131 19.7115 11.0642 19.956C13.6562 20.1902 15.634 19.475 17.2027 18.2099C18.7909 16.9293 19.8434 14.8673 19.9798 12.6813C20.2303 8.65761 18.1188 6.75629 15.7894 5.01845ZM19.3461 12.8753C19.2036 14.5572 18.3817 16.1719 17.2512 17.2886C16.9035 17.6319 16.4061 17.7794 16.1307 18.2101C15.4555 18.4251 14.9968 18.696 14.3281 18.986C14.159 19.0248 14.1407 18.9139 13.9869 18.9377C13.899 19.1576 13.4071 19.1853 13.0612 19.0832C13.0529 19.1885 13.2342 19.105 13.3048 19.1317C13.2443 19.2198 12.705 19.2948 12.9636 19.1317C12.8848 19.118 12.8797 19.1776 12.8174 19.18C12.6782 19.2053 12.8962 19.2518 12.9149 19.277C12.5164 19.1881 12.1843 19.0897 11.6969 19.277C11.9858 19.0935 11.202 19.1643 10.9174 19.2285C10.92 18.9836 10.5583 19.0085 10.4302 19.0345C9.45037 18.7474 8.53568 18.2493 7.75071 17.9191C7.78643 17.8326 7.83942 17.912 7.89686 17.9191C7.00085 17.1619 6.01004 16.0792 5.41222 14.8637C5.0306 13.5302 4.7797 12.4671 4.97376 10.8384C4.98716 10.7258 5.10814 10.2186 5.21735 9.86844C5.34828 9.44913 5.72686 8.94819 5.89941 8.559C5.93696 8.47433 5.90875 8.33227 5.94813 8.26801C5.99928 8.18475 6.18076 8.13989 6.24044 8.02552C6.88291 6.79206 8.60125 5.63963 10.0405 5.21265C10.591 5.04937 11.0855 4.96389 11.5995 4.97016C12.3426 4.97925 13.0462 4.89862 13.8405 5.06715C16.9877 5.73521 19.6713 9.03751 19.3461 12.8753Z" fill="#252D29"/>
<path id="Vector_2" fill-rule="evenodd" clip-rule="evenodd" d="M12.3671 10.6057C12.3719 9.80091 12.4061 9.15167 12.4103 8.45019C12.4122 8.11606 12.477 7.72302 12.2643 7.35858C12.1931 7.36979 12.1222 7.33943 12.0511 7.33022C11.6908 7.66682 11.7551 8.00108 11.8623 8.3351C11.6979 8.8773 11.761 9.41823 11.7614 9.95952C11.6678 10.0037 11.59 10.1909 11.6994 10.137C11.6791 10.0187 11.7077 10.1502 11.76 10.1957C11.6913 10.5209 11.7661 10.8452 11.7238 11.1702C11.6261 11.1991 11.6261 11.2015 11.7235 11.2293C11.5802 11.7155 11.1738 11.4337 10.9286 11.647C10.8568 11.5358 10.8919 11.5698 10.7771 11.5002C9.8294 11.6043 8.98646 11.4091 8.09398 11.6921C8.00924 11.6335 8.25036 11.5732 8.09502 11.515C7.74169 11.4575 6.83236 11.7332 7.23747 12.2283C7.38877 12.4132 8.01957 12.4272 8.36395 12.4288C8.81843 12.4311 9.17177 12.3349 9.55312 12.3336C10.1016 12.3317 10.6864 12.4717 11.1077 12.2956C11.3098 12.4471 11.5141 12.2823 11.7169 12.3513C11.7236 12.6782 11.6847 13.2686 11.6491 13.5328C11.6288 13.6821 11.7104 13.8841 11.7069 14.0638C11.7035 14.2439 11.6478 14.4356 11.6428 14.5956C11.6328 14.9162 11.7602 15.2096 11.7595 15.4807C11.7588 15.7536 11.5527 16.2075 11.7233 16.4552C11.8224 16.5989 12.0072 16.7106 12.2097 16.6888C12.3305 16.5896 12.4043 16.4908 12.4553 16.3922C12.4758 15.0044 12.404 13.6172 12.4492 12.2293C13.7196 12.2854 15.2526 12.1791 16.6245 12.2358C17.3701 11.5145 16.1184 11.6638 15.7136 11.6503C14.7679 11.6188 14.3729 11.6872 13.4886 11.6921C13.2522 11.6933 12.4411 11.7535 12.361 11.6688C12.3064 11.6111 12.3655 10.8875 12.3671 10.6057Z" fill="#252D29"/>
</g>
</svg>
