<svg style="display:none">
	<symbol id="Logo" viewBox="0 0 126 16" fill="none" xmlns="http://www.w3.org/2000/svg"><path d="M0.459999 0.999999H10.02V2.98H2.84V6.92H8.22V8.9H2.84V15H0.459999V0.999999Z" fill="#161616"/><path d="M23.6177 2.98H22.8977L18.6977 15H16.2577L21.2177 0.999999H25.2577L30.2377 15H27.7977L23.6177 2.98ZM18.9777 9.62H27.1377V11.58H18.9777V9.62Z" fill="#161616"/><path d="M40.435 11.16C40.515 11.5333 40.6683 11.8733 40.895 12.18C41.135 12.4733 41.4483 12.7067 41.835 12.88C42.235 13.0533 42.7083 13.14 43.255 13.14C44.095 13.14 44.7217 12.9467 45.135 12.56C45.5483 12.16 45.755 11.6933 45.755 11.16C45.755 10.72 45.6217 10.3533 45.355 10.06C45.1017 9.76667 44.7417 9.52 44.275 9.32C43.8083 9.10667 43.275 8.90667 42.675 8.72C42.1283 8.56 41.6017 8.39333 41.095 8.22C40.5883 8.03333 40.1283 7.80667 39.715 7.54C39.315 7.26 38.995 6.90667 38.755 6.48C38.515 6.04 38.4017 5.49333 38.415 4.84C38.415 3.98667 38.615 3.26667 39.015 2.68C39.415 2.08 39.975 1.62667 40.695 1.32C41.415 1.01333 42.2417 0.86 43.175 0.86C43.9617 0.86 44.6683 0.973333 45.295 1.2C45.935 1.41333 46.475 1.73333 46.915 2.16C47.355 2.57333 47.6817 3.08667 47.895 3.7L45.715 4.42C45.635 4.12667 45.475 3.86667 45.235 3.64C44.995 3.4 44.695 3.21333 44.335 3.08C43.9883 2.94667 43.6083 2.87333 43.195 2.86C42.7417 2.84667 42.335 2.91333 41.975 3.06C41.6283 3.20667 41.3483 3.42 41.135 3.7C40.9217 3.96667 40.815 4.28 40.815 4.64C40.815 5.05333 40.935 5.38 41.175 5.62C41.415 5.84667 41.7283 6.04 42.115 6.2C42.515 6.34667 42.955 6.5 43.435 6.66C43.995 6.82 44.5483 7.00667 45.095 7.22C45.655 7.42 46.1617 7.68 46.615 8C47.0817 8.30667 47.455 8.7 47.735 9.18C48.015 9.66 48.155 10.26 48.155 10.98C48.155 11.7533 47.975 12.4533 47.615 13.08C47.2683 13.7067 46.735 14.2067 46.015 14.58C45.295 14.9533 44.4017 15.14 43.335 15.14C42.4683 15.14 41.675 15.0133 40.955 14.76C40.2483 14.4933 39.655 14.12 39.175 13.64C38.7083 13.1467 38.4017 12.5667 38.255 11.9L40.435 11.16Z" fill="#161616"/><path d="M57.4952 0.999999H59.8752V6.92H66.4752V0.999999H68.8352V15H66.4752V8.9H59.8752V15H57.4952V0.999999Z" fill="#161616"/><path d="M78.7725 0.999999H81.1525V15H78.7725V0.999999Z" fill="#161616"/><path d="M97.485 15.14C96.4983 15.14 95.5717 14.9667 94.705 14.62C93.8383 14.2733 93.0783 13.7867 92.425 13.16C91.785 12.52 91.2783 11.7667 90.905 10.9C90.545 10.02 90.365 9.05333 90.365 8C90.365 6.96 90.545 6.00667 90.905 5.14C91.2783 4.26 91.785 3.5 92.425 2.86C93.0783 2.22 93.8383 1.72667 94.705 1.38C95.5717 1.03333 96.4983 0.86 97.485 0.86C98.4717 0.86 99.3917 1.03333 100.245 1.38C101.112 1.72667 101.865 2.22 102.505 2.86C103.158 3.5 103.665 4.26 104.025 5.14C104.398 6.00667 104.585 6.96 104.585 8C104.585 9.05333 104.398 10.02 104.025 10.9C103.665 11.7667 103.158 12.52 102.505 13.16C101.865 13.7867 101.112 14.2733 100.245 14.62C99.3917 14.9667 98.4717 15.14 97.485 15.14ZM97.485 13.12C98.3917 13.12 99.1983 12.9133 99.905 12.5C100.612 12.0733 101.165 11.48 101.565 10.72C101.965 9.94667 102.165 9.04 102.165 8C102.165 6.94667 101.965 6.04 101.565 5.28C101.165 4.52 100.612 3.93333 99.905 3.52C99.1983 3.09333 98.3917 2.88 97.485 2.88C96.5783 2.88 95.7717 3.09333 95.065 3.52C94.3583 3.93333 93.7983 4.52 93.385 5.28C92.985 6.04 92.785 6.94667 92.785 8C92.785 9.04 92.985 9.94667 93.385 10.72C93.7983 11.48 94.3583 12.0733 95.065 12.5C95.7717 12.9133 96.5783 13.12 97.485 13.12Z" fill="#161616"/><path d="M125.089 0.999999V15H122.669L116.149 4.74V15H113.769V0.999999H116.209L122.729 11.22V0.999999H125.089Z" fill="#161616"/></symbol>
	<symbol id="ChevronLeft" xmlns="http://www.w3.org/2000/svg" fill="none" viewBox="0 0 24 24" stroke="currentColor"><path stroke-linecap="round" stroke-linejoin="round" d="M15.75 19.5L8.25 12l7.5-7.5" /></symbol>
	<symbol id="ChevronRight" xmlns="http://www.w3.org/2000/svg" fill="none" viewBox="0 0 24 24" stroke="currentColor"><path stroke-linecap="round" stroke-linejoin="round" d="M8.25 4.5l7.5 7.5-7.5 7.5" /></symbol>
	<symbol id="ChevronUp" xmlns="http://www.w3.org/2000/svg" fill="none" viewBox="0 0 24 24" stroke="currentColor"><path stroke-linecap="round" stroke-linejoin="round" d="M4.5 15.75l7.5-7.5 7.5 7.5" /></symbol>	
	<symbol id="ChevronDown" xmlns="http://www.w3.org/2000/svg" fill="none" viewBox="0 0 24 24" stroke="currentColor"><path stroke-linecap="round" stroke-linejoin="round" d="M19.5 8.25l-7.5 7.5-7.5-7.5" /></symbol>
	<symbol id="QuestionMarkCircle" xmlns="http://www.w3.org/2000/svg" fill="none" viewBox="0 0 24 24" stroke="currentColor"><path stroke-linecap="round" stroke-linejoin="round" d="M9.879 7.519c1.171-1.025 3.071-1.025 4.242 0 1.172 1.025 1.172 2.687 0 3.712-.203.179-.43.326-.67.442-.745.361-1.45.999-1.45 1.827v.75M21 12a9 9 0 11-18 0 9 9 0 0118 0zm-9 5.25h.008v.008H12v-.008z" /></symbol>
	<symbol id="User" width="20" height="20" viewBox="0 0 20 20" fill="none" xmlns="http://www.w3.org/2000/svg"><path fill-rule="evenodd" clip-rule="evenodd" d="M10.0003 3.33366C8.61961 3.33366 7.50033 4.45295 7.50033 5.83366C7.50033 7.21437 8.61961 8.33366 10.0003 8.33366C11.381 8.33366 12.5003 7.21437 12.5003 5.83366C12.5003 4.45295 11.381 3.33366 10.0003 3.33366ZM5.83366 5.83366C5.83366 3.53247 7.69914 1.66699 10.0003 1.66699C12.3015 1.66699 14.167 3.53247 14.167 5.83366C14.167 8.13484 12.3015 10.0003 10.0003 10.0003C7.69914 10.0003 5.83366 8.13484 5.83366 5.83366ZM8.33366 13.3337C7.67062 13.3337 7.03473 13.597 6.56589 14.0659C6.09705 14.5347 5.83366 15.1706 5.83366 15.8337V17.5003C5.83366 17.9606 5.46056 18.3337 5.00033 18.3337C4.54009 18.3337 4.16699 17.9606 4.16699 17.5003V15.8337C4.16699 14.7286 4.60598 13.6688 5.38738 12.8874C6.16878 12.106 7.22859 11.667 8.33366 11.667H11.667C12.7721 11.667 13.8319 12.106 14.6133 12.8874C15.3947 13.6688 15.8337 14.7286 15.8337 15.8337V17.5003C15.8337 17.9606 15.4606 18.3337 15.0003 18.3337C14.5401 18.3337 14.167 17.9606 14.167 17.5003V15.8337C14.167 15.1706 13.9036 14.5347 13.4348 14.0659C12.9659 13.597 12.33 13.3337 11.667 13.3337H8.33366Z" fill="currentColor"/></symbol>
	<symbol id="ShoppingCart" width="20" height="20" viewBox="0 0 20 20" fill="none" xmlns="http://www.w3.org/2000/svg"><path d="M14.9997 5.00033H13.333C13.333 3.15866 11.8413 1.66699 9.99968 1.66699C8.15801 1.66699 6.66634 3.15866 6.66634 5.00033H4.99967C4.08301 5.00033 3.33301 5.75033 3.33301 6.66699V16.667C3.33301 17.5837 4.08301 18.3337 4.99967 18.3337H14.9997C15.9163 18.3337 16.6663 17.5837 16.6663 16.667V6.66699C16.6663 5.75033 15.9163 5.00033 14.9997 5.00033ZM9.99968 3.33366C10.9163 3.33366 11.6663 4.08366 11.6663 5.00033H8.33301C8.33301 4.08366 9.08301 3.33366 9.99968 3.33366ZM14.9997 16.667H4.99967V6.66699H6.66634V8.33366C6.66634 8.79199 7.04134 9.16699 7.49967 9.16699C7.95801 9.16699 8.33301 8.79199 8.33301 8.33366V6.66699H11.6663V8.33366C11.6663 8.79199 12.0413 9.16699 12.4997 9.16699C12.958 9.16699 13.333 8.79199 13.333 8.33366V6.66699H14.9997V16.667Z" fill="currentColor"/></symbol>
	<symbol id="Bars3" xmlns="http://www.w3.org/2000/svg" viewBox="0 0 20 20" stroke="currentColor" fill="none"><path fill-rule="evenodd" clip-rule="evenodd" d="M2.5 5.00033C2.5 4.54009 2.8731 4.16699 3.33333 4.16699H16.6667C17.1269 4.16699 17.5 4.54009 17.5 5.00033C17.5 5.46056 17.1269 5.83366 16.6667 5.83366H3.33333C2.8731 5.83366 2.5 5.46056 2.5 5.00033ZM2.5 10.0003C2.5 9.54009 2.8731 9.16699 3.33333 9.16699H16.6667C17.1269 9.16699 17.5 9.54009 17.5 10.0003C17.5 10.4606 17.1269 10.8337 16.6667 10.8337H3.33333C2.8731 10.8337 2.5 10.4606 2.5 10.0003ZM2.5 15.0003C2.5 14.5401 2.8731 14.167 3.33333 14.167H16.6667C17.1269 14.167 17.5 14.5401 17.5 15.0003C17.5 15.4606 17.1269 15.8337 16.6667 15.8337H3.33333C2.8731 15.8337 2.5 15.4606 2.5 15.0003Z" fill="currentColor"/></symbol>
	<symbol id="Heart" xmlns="http://www.w3.org/2000/svg" viewBox="0 0 24 24" stroke="currentColor"><path stroke-linecap="round" stroke-linejoin="round" d="M21 8.25c0-2.485-2.099-4.5-4.688-4.5-1.935 0-3.597 1.126-4.312 2.733-.715-1.607-2.377-2.733-4.313-2.733C5.1 3.75 3 5.765 3 8.25c0 7.22 9 12 9 12s9-4.78 9-12z" /></symbol>
	<symbol id="MagnifyingGlass" width="20" height="20" viewBox="0 0 20 20" fill="none" xmlns="http://www.w3.org/2000/svg"><path fill-rule="evenodd" clip-rule="evenodd" d="M8.33366 3.33366C5.57223 3.33366 3.33366 5.57223 3.33366 8.33366C3.33366 11.0951 5.57223 13.3337 8.33366 13.3337C11.0951 13.3337 13.3337 11.0951 13.3337 8.33366C13.3337 5.57223 11.0951 3.33366 8.33366 3.33366ZM1.66699 8.33366C1.66699 4.65176 4.65176 1.66699 8.33366 1.66699C12.0156 1.66699 15.0003 4.65176 15.0003 8.33366C15.0003 9.87425 14.4778 11.2928 13.6002 12.4217L18.0896 16.9111C18.415 17.2365 18.415 17.7641 18.0896 18.0896C17.7641 18.415 17.2365 18.415 16.9111 18.0896L12.4217 13.6002C11.2928 14.4778 9.87425 15.0003 8.33366 15.0003C4.65176 15.0003 1.66699 12.0156 1.66699 8.33366Z" fill="currentColor"/></symbol>
	<symbol id="XMark" xmlns="http://www.w3.org/2000/svg" fill="none" viewBox="0 0 24 24" stroke="currentColor"><path stroke-linecap="round" stroke-linejoin="round" d="M6 18L18 6M6 6l12 12" /></symbol>
	<symbol id="Plus" xmlns="http://www.w3.org/2000/svg" fill="none" viewBox="0 0 24 24" stroke="currentColor"><path stroke-linecap="round" stroke-linejoin="round" d="M12 4.5v15m7.5-7.5h-15" /></symbol>
	<symbol id="Minus" xmlns="http://www.w3.org/2000/svg" fill="none" viewBox="0 0 24 24" stroke="currentColor"><path stroke-linecap="round" stroke-linejoin="round" d="M19.5 12h-15" /></symbol>
	<symbol id="MapPin" xmlns="http://www.w3.org/2000/svg" fill="none" viewBox="0 0 24 24" stroke="currentColor"><path stroke-linecap="round" stroke-linejoin="round" d="M15 10.5a3 3 0 11-6 0 3 3 0 016 0z" /><path stroke-linecap="round" stroke-linejoin="round" d="M19.5 10.5c0 7.142-7.5 11.25-7.5 11.25S4.5 17.642 4.5 10.5a7.5 7.5 0 1115 0z" /></symbol>	
	<symbol id="Phone" xmlns="http://www.w3.org/2000/svg" fill="none" viewBox="0 0 24 24" stroke="currentColor"><path stroke-linecap="round" stroke-linejoin="round" d="M2.25 6.75c0 8.284 6.716 15 15 15h2.25a2.25 2.25 0 002.25-2.25v-1.372c0-.516-.351-.966-.852-1.091l-4.423-1.106c-.44-.11-.902.055-1.173.417l-.97 1.293c-.282.376-.769.542-1.21.38a12.035 12.035 0 01-7.143-7.143c-.162-.441.004-.928.38-1.21l1.293-.97c.363-.271.527-.734.417-1.173L6.963 3.102a1.125 1.125 0 00-1.091-.852H4.5A2.25 2.25 0 002.25 4.5v2.25z" /></symbol>
	<symbol id="Elo" xmlns="http://www.w3.org/2000/svg" viewBox="0 0 40 14" stroke="currentColor" fill="none"><path d="M6.57655 3.09309C6.98496 2.95495 7.4234 2.88288 7.87985 2.88288C9.87385 2.88288 11.5375 4.3003 11.9159 6.18018L14.7387 5.6036C14.0901 2.40841 11.2672 0 7.87985 0C7.10508 0 6.36033 0.126126 5.66364 0.36036L6.57655 3.09309Z" fill="currentColor"/><path d="M3.24323 12.2463L5.15314 10.0841C4.30029 9.32733 3.76576 8.22823 3.76576 6.997C3.76576 5.77178 4.30029 4.66667 5.15314 3.91592L3.24323 1.75977C1.79579 3.04505 0.882874 4.91292 0.882874 7.00301C0.882874 9.08709 1.79579 10.961 3.24323 12.2463Z" fill="currentColor"/><path d="M11.9159 7.82617C11.5315 9.70605 9.87387 11.1175 7.87988 11.1175C7.42342 11.1175 6.98498 11.0454 6.57057 10.9073L5.65765 13.64C6.35435 13.8742 7.1051 14.0003 7.87988 14.0003C11.2673 14.0003 14.0901 11.5979 14.7387 8.40275L11.9159 7.82617Z" fill="currentColor"/><path d="M24.1441 9.75962C23.6757 10.2161 23.045 10.4924 22.3484 10.4803C21.8679 10.4743 21.4234 10.3302 21.0511 10.0899L20.1141 11.5794C20.7568 11.9818 21.5075 12.2221 22.3243 12.2341C23.5075 12.2521 24.5886 11.7836 25.3754 11.0209L24.1441 9.75962ZM22.4505 3.68755C20.0961 3.65151 18.1502 5.5374 18.1141 7.89175C18.1021 8.77463 18.3544 9.60346 18.8048 10.2881L26.5405 6.97884C26.1081 5.12298 24.4505 3.72358 22.4505 3.68755ZM19.8859 8.22809C19.8739 8.13199 19.8679 8.02989 19.8679 7.92779C19.8919 6.5404 21.033 5.42929 22.4204 5.45331C23.1772 5.46532 23.8499 5.80767 24.3003 6.34821L19.8859 8.22809ZM28.973 1.76562V10.0119L30.4024 10.6065L29.7237 12.2341L28.3063 11.6455C27.988 11.5074 27.7718 11.2972 27.6096 11.0569C27.4535 10.8167 27.3333 10.4803 27.3333 10.0359V1.76562H28.973Z" fill="currentColor"/><path d="M34.1321 5.57925C34.3844 5.49516 34.6487 5.45312 34.9309 5.45312C36.1502 5.45312 37.1592 6.31798 37.3934 7.46513L39.1171 7.11078C38.7207 5.15882 36.997 3.69336 34.9309 3.69336C34.4565 3.69336 34 3.77144 33.5796 3.90958L34.1321 5.57925ZM32.0961 11.1588L33.2613 9.84351C32.7387 9.38105 32.4144 8.70837 32.4144 7.95762C32.4144 7.20687 32.7448 6.5342 33.2613 6.07774L32.0961 4.76243C31.2132 5.54321 30.6547 6.69036 30.6547 7.96363C30.6547 9.2369 31.2132 10.378 32.0961 11.1588ZM37.3934 8.46813C37.1592 9.61528 36.1442 10.4801 34.9309 10.4801C34.6547 10.4801 34.3844 10.4321 34.1321 10.348L33.5736 12.0177C34 12.1618 34.4565 12.2399 34.9309 12.2399C36.997 12.2399 38.7207 10.7744 39.1171 8.82249L37.3934 8.46813Z" fill="currentColor"/></symbol>
	<symbol id="Mastercard" xmlns="http://www.w3.org/2000/svg" viewBox="0 0 26 20" fill="none" stroke="currentColor"><g clip-path="url(#clip0_81_156)"><path d="M4.77191 19.9552V18.6263C4.77191 18.1167 4.46174 17.7846 3.95265 17.7846C3.68527 17.7846 3.39918 17.8734 3.19971 18.159C3.04463 17.9151 2.82538 17.7846 2.49116 17.7846C2.36689 17.7793 2.24323 17.8048 2.13124 17.8589C2.01926 17.913 1.92244 17.9941 1.84944 18.0948V17.8274H1.42859V19.9536H1.84944V18.737C1.84944 18.3627 2.07083 18.1836 2.381 18.1836C2.69116 18.1836 2.86816 18.383 2.86816 18.737V19.9552H3.28902V18.737C3.28902 18.3627 3.51041 18.1836 3.82057 18.1836C4.13073 18.1836 4.30773 18.383 4.30773 18.737V19.9552H4.77191ZM11.6821 17.8509H10.9067V17.2092H10.4869V17.8509H10.0441V18.2253H10.4869V19.2242C10.4869 19.7114 10.6639 19.9996 11.1954 19.9996C11.3968 19.9954 11.5941 19.9422 11.7703 19.8445L11.6371 19.4702C11.5177 19.5449 11.3791 19.5833 11.2382 19.5809C11.0168 19.5809 10.9061 19.4477 10.9061 19.2263V18.2082H11.6815V17.8536L11.6821 17.8509ZM15.6243 17.7846C15.5097 17.7821 15.3964 17.8093 15.2954 17.8637C15.1945 17.918 15.1093 17.9977 15.0484 18.0948V17.8274H14.6275V19.9536H15.0484V18.7595C15.0484 18.405 15.2254 18.1836 15.5136 18.1836C15.6109 18.1875 15.7074 18.2024 15.8013 18.2279L15.9345 17.829C15.8329 17.8034 15.729 17.7885 15.6243 17.7846ZM9.66656 18.006C9.44517 17.8509 9.13501 17.7846 8.80292 17.7846C8.27137 17.7846 7.93928 18.0285 7.93928 18.4493C7.93928 18.8039 8.18314 19.0028 8.64784 19.0697L8.86923 19.0916C9.11308 19.136 9.26816 19.2247 9.26816 19.3354C9.26816 19.4905 9.09116 19.6028 8.75854 19.6028C8.50456 19.608 8.2558 19.5303 8.04998 19.3814L7.82859 19.7135C8.13875 19.9349 8.51522 19.9809 8.73768 19.9809C9.358 19.9809 9.69009 19.6932 9.69009 19.2943C9.69009 18.9199 9.42271 18.7408 8.95907 18.6739L8.73768 18.652C8.53822 18.6301 8.36335 18.5632 8.36335 18.4306C8.36335 18.2755 8.54036 18.1632 8.78421 18.1632C9.05159 18.1632 9.31576 18.2739 9.44891 18.3402L9.66656 18.006ZM16.0896 18.8921C16.0896 19.5338 16.5104 19.9996 17.197 19.9996C17.5072 19.9996 17.7286 19.9333 17.95 19.7558L17.7286 19.4237C17.5718 19.5506 17.3768 19.6209 17.1751 19.6231C16.8008 19.6231 16.5104 19.3354 16.5104 18.9146C16.5104 18.4937 16.797 18.2082 17.1751 18.2082C17.3768 18.2104 17.5718 18.2807 17.7286 18.4076L17.95 18.0755C17.7286 17.8985 17.5072 17.8317 17.197 17.8317C16.5323 17.7873 16.0896 18.2525 16.0896 18.8948V18.8921ZM13.1216 17.7846C12.5013 17.7846 12.0805 18.2274 12.0805 18.8921C12.0805 19.5568 12.5232 19.9996 13.1655 19.9996C13.4779 20.0062 13.7831 19.9046 14.0291 19.7119L13.8077 19.4017C13.6298 19.5396 13.4125 19.6172 13.1874 19.6231C12.8997 19.6231 12.5896 19.4461 12.5457 19.0697H14.1184V18.8927C14.1184 18.2279 13.7195 17.7852 13.1216 17.7852V17.7846ZM13.0997 18.1836C13.4099 18.1836 13.6313 18.383 13.6532 18.7151H12.5019C12.5682 18.405 12.7692 18.1836 13.0997 18.1836ZM7.36335 18.8921V17.829H6.94249V18.0964C6.78741 17.8969 6.56816 17.7862 6.25586 17.7862C5.658 17.7862 5.21469 18.2515 5.21469 18.8937C5.21469 19.536 5.65747 20.0012 6.25586 20.0012C6.56602 20.0012 6.78741 19.8905 6.94249 19.691V19.9584H7.36335V18.8921ZM5.658 18.8921C5.658 18.4932 5.90185 18.1836 6.32271 18.1836C6.72164 18.1836 6.96442 18.4937 6.96442 18.8921C6.96442 19.313 6.69704 19.6007 6.32271 19.6007C5.90185 19.6226 5.658 19.2905 5.658 18.8921ZM22.0259 17.7846C21.9113 17.7821 21.798 17.8093 21.697 17.8637C21.5961 17.918 21.5109 17.9977 21.45 18.0948V17.8274H21.0291V19.9536H21.4495V18.7595C21.4495 18.405 21.6265 18.1836 21.9147 18.1836C22.012 18.1875 22.1085 18.2024 22.2024 18.2279L22.3355 17.829C22.234 17.8034 22.13 17.7885 22.0254 17.7846H22.0259ZM20.3869 18.8921V17.829H19.966V18.0964C19.8109 17.8969 19.5917 17.7862 19.2794 17.7862C18.6815 17.7862 18.2382 18.2515 18.2382 18.8937C18.2382 19.536 18.681 20.0012 19.2794 20.0012C19.5896 20.0012 19.8109 19.8905 19.966 19.691V19.9584H20.3869V18.8921ZM18.6815 18.8921C18.6815 18.4932 18.9254 18.1836 19.3462 18.1836C19.7452 18.1836 19.988 18.4937 19.988 18.8921C19.988 19.313 19.7206 19.6007 19.3462 19.6007C18.9254 19.6226 18.6815 19.2905 18.6815 18.8921ZM24.6618 18.8921V16.9873H24.2409V18.0948C24.0858 17.8953 23.8666 17.7846 23.5543 17.7846C22.9564 17.7846 22.5131 18.2499 22.5131 18.8921C22.5131 19.5344 22.9559 19.9996 23.5543 19.9996C23.8644 19.9996 24.0858 19.8889 24.2409 19.6894V19.9568H24.6618V18.8921ZM22.9564 18.8921C22.9564 18.4932 23.2003 18.1836 23.6211 18.1836C24.02 18.1836 24.2628 18.4937 24.2628 18.8921C24.2628 19.313 23.9954 19.6007 23.6211 19.6007C23.1997 19.6231 22.9559 19.291 22.9559 18.8921H22.9564Z" fill="currentColor"/><path d="M9.95478 7.97327C9.95505 6.76731 10.2281 5.57704 10.7536 4.49159C11.279 3.40613 12.0433 2.45361 12.989 1.70535C11.8128 0.780601 10.4002 0.205442 8.9126 0.045623C7.42499 -0.114196 5.92242 0.147775 4.57667 0.801588C3.23091 1.4554 2.09627 2.47468 1.30244 3.74289C0.508619 5.01111 0.0876465 6.47709 0.0876465 7.97327C0.0876465 9.46944 0.508619 10.9354 1.30244 12.2036C2.09627 13.4719 3.23091 14.4911 4.57667 15.1449C5.92242 15.7988 7.42499 16.0607 8.9126 15.9009C10.4002 15.7411 11.8128 15.1659 12.989 14.2412C12.0433 13.4929 11.279 12.5404 10.7536 11.4549C10.2281 10.3695 9.95505 9.17922 9.95478 7.97327Z" fill="currentColor"/><path d="M25.9019 7.97297C25.9029 9.46805 25.4832 10.9333 24.6907 12.201C23.8982 13.4688 22.7648 14.4879 21.4203 15.1418C20.0758 15.7957 18.5744 16.0579 17.0879 15.8986C15.6013 15.7393 14.1896 15.1648 13.0142 14.2409C13.9601 13.4928 14.7245 12.5403 15.25 11.4548C15.7755 10.3693 16.0485 9.17898 16.0485 7.97297C16.0485 6.76696 15.7755 5.5766 15.25 4.4911C14.7245 3.4056 13.9601 2.45312 13.0142 1.70506C14.1896 0.781104 15.6013 0.20662 17.0879 0.0473072C18.5744 -0.112005 20.0758 0.150287 21.4203 0.804186C22.7648 1.45808 23.8982 2.47719 24.6907 3.74493C25.4832 5.01268 25.9029 6.47789 25.9019 7.97297Z" fill="currentColor" fill-opacity="0.4"/><path fill-rule="evenodd" clip-rule="evenodd" d="M13.0141 1.70508H12.989C12.0432 2.45333 11.279 3.40585 10.7536 4.49131C10.2281 5.57677 9.95504 6.76704 9.95477 7.97299C9.95504 9.17894 10.2281 10.3692 10.7536 11.4547C11.279 12.5401 12.0433 13.4926 12.989 14.2409H13.0141C13.0141 14.2409 13.0141 14.2409 13.0141 14.2409C13.9601 13.4928 14.7245 12.5404 15.25 11.4549C15.7755 10.3694 16.0484 9.17899 16.0484 7.97299C16.0484 6.76698 15.7755 5.57661 15.25 4.49111C14.7245 3.40561 13.9601 2.45314 13.0141 1.70508Z" fill="currentColor" fill-opacity="0.6"/></g><defs><clipPath id="clip0_81_156"><rect width="25.8027" height="20" fill="white" transform="translate(0.0986328)"/></clipPath></defs></symbol>
	<symbol id="Visa" xmlns="http://www.w3.org/2000/svg" viewBox="0 0 40 12" fill="none" stroke="currentColor"><path d="M14.2514 11.8628L16.2325 0.237305H19.4012L17.4187 11.8628H14.2514Z" fill="currentColor"/><path d="M28.8667 0.488266C28.2389 0.252744 27.2552 0 26.0267 0C22.8956 0 20.6902 1.57674 20.6714 3.83653C20.6537 5.50698 22.2459 6.43886 23.4479 6.99494C24.6813 7.56486 25.0959 7.92824 25.09 8.437C25.0821 9.21631 24.105 9.57221 23.1942 9.57221C21.926 9.57221 21.2522 9.39601 20.2115 8.96208L19.8031 8.77728L19.3585 11.3797C20.0986 11.7043 21.4671 11.9854 22.8882 12C26.2191 12 28.3815 10.4413 28.4061 8.02807C28.4179 6.70556 27.5737 5.69921 25.7455 4.86948C24.638 4.33169 23.9597 3.97282 23.9669 3.42826C23.9669 2.94504 24.541 2.42833 25.7816 2.42833C26.8177 2.41223 27.5684 2.6382 28.1533 2.87372L28.4372 3.00787L28.8667 0.488266Z" fill="currentColor"/><path d="M37.0208 0.237305H34.5723C33.8138 0.237305 33.2461 0.444322 32.913 1.20137L28.2071 11.8552H31.5345C31.5345 11.8552 32.0785 10.4228 32.2015 10.1082C32.5651 10.1082 35.7976 10.1132 36.2597 10.1132C36.3545 10.5202 36.6452 11.8552 36.6452 11.8552H39.5855L37.0208 0.237305ZM33.136 7.74409C33.3981 7.07428 34.3985 4.49428 34.3985 4.49428C34.3798 4.52522 34.6587 3.82121 34.8186 3.38473L35.0328 4.38703C35.0328 4.38703 35.6395 7.16205 35.7663 7.74391H33.136V7.74409Z" fill="currentColor"/><path d="M0.45503 0.237305L0.414551 0.479138C1.66716 0.782359 2.78593 1.22123 3.76542 1.76717L6.57706 11.8441L9.92966 11.8404L14.9183 0.237305H11.5615L8.45929 8.16502L8.12885 6.55384C8.11337 6.50406 8.09654 6.4542 8.07932 6.40422L7.00087 1.21879C6.80912 0.482646 6.25282 0.262959 5.56461 0.237305H0.45503Z" fill="currentColor"/></symbol>		
	<symbol id="Pix" viewBox="0 0 512 512" xmlns="http://www.w3.org/2000/svg" fill="none" stroke="currentColor"> <defs/> <g fill="currentColor" fill-rule="evenodd"> <path d="M393.072 391.897c-20.082 0-38.969-7.81-53.176-22.02l-77.069-77.067c-5.375-5.375-14.773-5.395-20.17 0l-76.784 76.786c-14.209 14.207-33.095 22.019-53.179 22.019h-9.247l97.521 97.52c30.375 30.375 79.614 30.375 109.988 0l97.239-97.238h-15.123zm-105.049 74.327c-8.55 8.53-19.93 13.25-32.05 13.25h-.02c-12.12 0-23.522-4.721-32.05-13.25l-56.855-56.855c7.875-4.613 15.165-10.248 21.758-16.84l63.948-63.948 64.23 64.23c7.637 7.66 16.188 14.013 25.478 18.952l-54.439 54.46zM310.958 22.78c-30.374-30.374-79.613-30.374-109.988 0l-97.52 97.52h9.247c20.082 0 38.97 7.834 53.178 22.02l76.784 76.785c5.57 5.592 14.622 5.57 20.17 0l77.069-77.068c14.207-14.187 33.094-22.02 53.176-22.02h15.123l-97.239-97.237zm6.028 96.346l-64.23 64.23-63.97-63.97c-6.593-6.592-13.86-12.206-21.736-16.818l56.853-56.877c17.69-17.645 46.476-17.668 64.121 0l54.44 54.461c-9.292 4.961-17.842 11.315-25.479 18.974h.001z"/> <path d="M489.149 200.97l-58.379-58.377h-37.706c-13.838 0-27.394 5.635-37.185 15.426l-77.068 77.069c-7.202 7.18-16.623 10.77-26.067 10.77-9.443 0-18.885-3.59-26.066-10.77l-76.785-76.785c-9.792-9.814-23.346-15.427-37.207-15.427h-31.81L22.78 200.97c-30.374 30.375-30.374 79.614 0 109.988l58.095 58.074 31.81.021c13.86 0 27.416-5.635 37.208-15.426l76.784-76.764c13.925-13.947 38.208-13.924 52.133-.02l77.068 77.066c9.791 9.792 23.346 15.405 37.185 15.405h37.706l58.379-58.356c30.374-30.374 30.374-79.613 0-109.988zm-362.19 129.724c-3.763 3.786-8.942 5.917-14.273 5.917H94.302l-48.59-48.564c-17.689-17.69-17.689-46.476 0-64.143L94.3 175.296h18.385c5.331 0 10.51 2.154 14.295 5.918l74.74 74.74-74.761 74.74zm339.257-42.647l-48.848 48.87h-24.305c-5.309 0-10.508-2.155-14.251-5.92l-75.023-75.043 75.023-75.023c3.743-3.764 8.942-5.918 14.252-5.918h24.304l48.847 48.891c8.573 8.551 13.273 19.93 13.273 32.05 0 12.141-4.7 23.52-13.273 32.093z"/> </g> </symbol>
	<symbol id="Facebook" xmlns="http://www.w3.org/2000/svg" viewBox="0 0 24 24" stroke="currentColor" fill="none" stroke-linecap="round" stroke-linejoin="round"><path stroke="none" d="M0 0h24v24H0z" fill="none" /><path d="M7 10v4h3v7h4v-7h3l1 -4h-4v-2a1 1 0 0 1 1 -1h3v-4h-3a5 5 0 0 0 -5 5v2h-3" /></symbol>
	<symbol id="Instagram" xmlns="http://www.w3.org/2000/svg" viewBox="0 0 24 24" stroke="currentColor" fill="none" stroke-linecap="round" stroke-linejoin="round"><path stroke="none" d="M0 0h24v24H0z" fill="none" /><rect x="4" y="4" width="16" height="16" rx="4" /><circle cx="12" cy="12" r="3" /><line x1="16.5" y1="7.5" x2="16.5" y2="7.501" /></symbol>
	<symbol id="Tiktok" xmlns="http://www.w3.org/2000/svg" viewBox="0 0 24 24" stroke="currentColor" fill="none" stroke-linecap="round" stroke-linejoin="round"><path stroke="none" d="M0 0h24v24H0z" fill="none" /><path d="M9 12a4 4 0 1 0 4 4v-12a5 5 0 0 0 5 5" /></symbol>
	<symbol id="Truck" xmlns="http://www.w3.org/2000/svg"  viewBox="0 0 36 28" stroke="currentColor" fill="none"><path d="M14 22.333C14 24.174 12.5077 25.6663 10.6667 25.6663C8.82576 25.6663 7.33337 24.174 7.33337 22.333M14 22.333C14 20.4921 12.5077 18.9997 10.6667 18.9997C8.82576 18.9997 7.33337 20.4921 7.33337 22.333M14 22.333H24M7.33337 22.333H4.00004V15.6663M30.6667 22.333C30.6667 24.174 29.1743 25.6663 27.3334 25.6663C25.4924 25.6663 24 24.174 24 22.333M30.6667 22.333C30.6667 20.4921 29.1743 18.9997 27.3334 18.9997C25.4924 18.9997 24 20.4921 24 22.333M30.6667 22.333H34V12.333M2.33337 2.33301H20.6667V22.333M34 12.333H20.6667M34 12.333L29 3.99967H20.6667M4.00004 8.99967H10.6667" stroke-linecap="round" stroke-linejoin="round"/></symbol>
	<symbol id="Discount" xmlns="http://www.w3.org/2000/svg" viewBox="0 0 34 34" stroke="currentColor" fill="none"><path d="M12 21.9998L22 11.9998M13.6667 12.8332C13.6667 13.2934 13.2936 13.6665 12.8333 13.6665C12.3731 13.6665 12 13.2934 12 12.8332C12 12.3729 12.3731 11.9998 12.8333 11.9998C13.2936 11.9998 13.6667 12.3729 13.6667 12.8332ZM22 21.1665C22 21.6267 21.6269 21.9998 21.1667 21.9998C20.7064 21.9998 20.3333 21.6267 20.3333 21.1665C20.3333 20.7063 20.7064 20.3332 21.1667 20.3332C21.6269 20.3332 22 20.7063 22 21.1665ZM5.33334 8.99979C5.33334 8.02733 5.71965 7.0947 6.40728 6.40707C7.09491 5.71943 8.02755 5.33313 9.00001 5.33313H10.6667C11.6348 5.33257 12.5635 4.94913 13.25 4.26646L14.4167 3.09979C14.7574 2.75713 15.1625 2.4852 15.6087 2.29964C16.0549 2.11408 16.5334 2.01855 17.0167 2.01855C17.4999 2.01855 17.9784 2.11408 18.4246 2.29964C18.8708 2.4852 19.2759 2.75713 19.6167 3.09979L20.7833 4.26646C21.4699 4.94913 22.3985 5.33257 23.3667 5.33313H25.0333C26.0058 5.33313 26.9384 5.71943 27.6261 6.40707C28.3137 7.0947 28.7 8.02733 28.7 8.99979V10.6665C28.7006 11.6346 29.084 12.5633 29.7667 13.2498L30.9333 14.4165C31.276 14.7572 31.5479 15.1623 31.7335 15.6085C31.9191 16.0547 32.0146 16.5332 32.0146 17.0165C32.0146 17.4997 31.9191 17.9782 31.7335 18.4244C31.5479 18.8706 31.276 19.2757 30.9333 19.6165L29.7667 20.7831C29.084 21.4696 28.7006 22.3983 28.7 23.3665V25.0331C28.7 26.0056 28.3137 26.9382 27.6261 27.6259C26.9384 28.3135 26.0058 28.6998 25.0333 28.6998H23.3667C22.3985 28.7003 21.4699 29.0838 20.7833 29.7665L19.6167 30.9331C19.2759 31.2758 18.8708 31.5477 18.4246 31.7333C17.9784 31.9188 17.4999 32.0144 17.0167 32.0144C16.5334 32.0144 16.0549 31.9188 15.6087 31.7333C15.1625 31.5477 14.7574 31.2758 14.4167 30.9331L13.25 29.7665C12.5635 29.0838 11.6348 28.7003 10.6667 28.6998H9.00001C8.02755 28.6998 7.09491 28.3135 6.40728 27.6259C5.71965 26.9382 5.33334 26.0056 5.33334 25.0331V23.3665C5.33279 22.3983 4.94934 21.4696 4.26667 20.7831L3.10001 19.6165C2.75734 19.2757 2.48541 18.8706 2.29985 18.4244C2.11429 17.9782 2.01877 17.4997 2.01877 17.0165C2.01877 16.5332 2.11429 16.0547 2.29985 15.6085C2.48541 15.1623 2.75734 14.7572 3.10001 14.4165L4.26667 13.2498C4.94934 12.5633 5.33279 11.6346 5.33334 10.6665V8.99979Z" stroke-linecap="round" stroke-linejoin="round"/></symbol>
	<symbol id="Return" xmlns="http://www.w3.org/2000/svg" viewBox="0 0 34 30" stroke="currentColor" fill="none"><path d="M32 6.66699H2M32 6.66699L27 11.667M32 6.66699L27 1.66699M7 28.3337L2 23.3337M2 23.3337L7 18.3337M2 23.3337H32" stroke-linecap="round" stroke-linejoin="round"/></symbol>			
	<symbol id="CreditCard" xmlns="http://www.w3.org/2000/svg" viewBox="0 0 34 28" stroke="currentColor" fill="none"><path d="M2 10.6663H32M8.66667 18.9997H8.68333M15.3333 18.9997H18.6667M7 2.33301H27C29.7614 2.33301 32 4.57158 32 7.33301V20.6663C32 23.4278 29.7614 25.6663 27 25.6663H7C4.23858 25.6663 2 23.4278 2 20.6663V7.33301C2 4.57158 4.23858 2.33301 7 2.33301Z" stroke-linecap="round" stroke-linejoin="round"/></symbol>		
	<symbol id="Deco" xmlns="http://www.w3.org/2000/svg" viewBox="0 0 58 20" stroke="currentColor" fill="none"><path d="M49.5359 16.9432C47.3666 16.9432 46.9948 14.8019 47.6797 12.7178C48.2221 11.0615 49.5066 9.31991 51.4201 9.31991C53.676 9.31991 53.9039 11.6038 53.247 13.6026C52.6753 15.3162 51.3908 16.9432 49.5359 16.9432ZM48.879 19.9973C52.6473 19.9973 56.0159 17.9133 57.3578 14.1449C58.7569 10.1767 57.1859 6.2085 52.0477 6.2085C47.9369 6.2085 44.7962 8.77758 43.5969 12.1755C42.2551 16.0011 43.7115 19.9973 48.879 19.9973ZM36.3747 19.9973C37.8591 19.9973 39.3729 19.6829 40.4282 19.2271C40.8 18.1998 40.828 17.2004 40.5428 16.201C39.8006 16.4862 38.7732 16.7727 37.7165 16.7727C34.861 16.7727 34.6051 14.6606 35.2048 12.8617C35.8617 10.9496 37.574 9.40786 40.287 9.40786C41.0012 9.40786 41.6861 9.52246 42.1138 9.77963C42.856 8.78025 43.2838 7.78086 43.3704 6.7535C42.7428 6.46834 41.6861 6.21117 40.3163 6.21117C35.863 6.21117 32.3505 8.80956 31.0953 12.406C29.896 15.8039 30.8101 20 36.3774 20L36.3747 19.9973ZM21.0442 11.8037C21.8143 10.0901 23.0136 9.09206 24.5846 9.09206C25.9838 9.09206 26.2116 9.86225 25.9838 10.4619C25.6413 11.2894 24.47 11.8037 21.0442 11.8037ZM22.2714 19.9973C23.7278 19.9973 25.7826 19.7122 27.4962 18.8554C27.7813 17.9133 27.7534 16.9712 27.4389 15.9998C26.3542 16.5421 24.8405 16.8566 23.4707 16.8566C21.4439 16.8566 20.3299 16.1997 20.3592 14.5447C25.8972 14.6873 28.7807 13.6879 29.7228 11.2334C30.6649 8.7496 29.0379 6.2085 25.1829 6.2085C21.0721 6.2085 18.046 9.14935 16.932 12.3181C15.7621 15.6867 16.5043 19.9973 22.2701 19.9973H22.2714ZM5.72293 19.9973C9.52059 19.9973 11.6806 18.2557 14.1924 12.9177C15.5622 9.97684 16.7335 7.09329 18.0753 4.23905L19.6743 4.7534C20.1021 4.89598 20.3313 4.6388 20.1314 4.23905L18.1899 0.270827C18.0473 -0.0143302 17.7329 -0.0436454 17.533 0.0429678L12.708 1.86984C12.3082 2.01242 12.3362 2.38419 12.7359 2.49745L14.1631 2.95451C12.9931 5.6102 11.5367 9.60641 10.3654 12.1182C9.05155 14.9165 8.39595 16.8859 6.16933 16.8859C3.9427 16.8859 3.57093 15.1443 4.51301 12.6605C5.59768 9.77697 7.42455 8.92016 9.5086 9.51979C10.0802 8.72028 10.508 7.52103 10.6785 6.43636C10.0789 6.26447 9.36469 6.2085 8.76639 6.2085C5.3978 6.2085 2.05719 7.95009 0.687373 11.6038C-1.0822 16.3143 0.554122 19.9973 5.7216 19.9973H5.72293Z" fill="currentColor"/></symbol>
	<symbol id="Discord" xmlns="http://www.w3.org/2000/svg" viewBox="0 0 127.14 96.36" stroke="currentColor" fill="none"><g id="图层_2" data-name="图层 2"><g id="Discord_Logos" data-name="Discord Logos"><g id="Discord_Logo_-_Large_-_White" data-name="Discord Logo - Large - White"><path class="cls-1" d="M107.7,8.07A105.15,105.15,0,0,0,81.47,0a72.06,72.06,0,0,0-3.36,6.83A97.68,97.68,0,0,0,49,6.83,72.37,72.37,0,0,0,45.64,0,105.89,105.89,0,0,0,19.39,8.09C2.79,32.65-1.71,56.6.54,80.21h0A105.73,105.73,0,0,0,32.71,96.36,77.7,77.7,0,0,0,39.6,85.25a68.42,68.42,0,0,1-10.85-5.18c.91-.66,1.8-1.34,2.66-2a75.57,75.57,0,0,0,64.32,0c.87.71,1.76,1.39,2.66,2a68.68,68.68,0,0,1-10.87,5.19,77,77,0,0,0,6.89,11.1A105.25,105.25,0,0,0,126.6,80.22h0C129.24,52.84,122.09,29.11,107.7,8.07ZM42.45,65.69C36.18,65.69,31,60,31,53s5-12.74,11.43-12.74S54,46,53.89,53,48.84,65.69,42.45,65.69Zm42.24,0C78.41,65.69,73.25,60,73.25,53s5-12.74,11.44-12.74S96.23,46,96.12,53,91.08,65.69,84.69,65.69Z"/></g></g></g></symbol>
	<symbol id="FilterList" xmlns="http://www.w3.org/2000/svg" viewBox="0 0 16 16" fill="none"><path d="M6.66667 12H9.33333V10.6667H6.66667V12ZM2 4V5.33333H14V4H2ZM4 8.66667H12V7.33333H4V8.66667Z" fill="currentColor"/></symbol>
	<symbol id="ChevronUp" xmlns="http://www.w3.org/2000/svg" viewBox="0 0 16 16" stroke="currentColor" fill="none"><path fill-rule="evenodd" clip-rule="evenodd" d="M7.52851 5.52827C7.78886 5.26792 8.21097 5.26792 8.47132 5.52827L12.4713 9.52827C12.7317 9.78862 12.7317 10.2107 12.4713 10.4711C12.211 10.7314 11.7889 10.7314 11.5285 10.4711L7.99992 6.94248L4.47132 10.4711C4.21097 10.7314 3.78886 10.7314 3.52851 10.4711C3.26816 10.2107 3.26816 9.78862 3.52851 9.52827L7.52851 5.52827Z" fill="black"/></symbol>
	<symbol id="Trash" width="20" height="20" viewBox="0 0 20 20" fill="none" xmlns="http://www.w3.org/2000/svg"><path fill-rule="evenodd" clip-rule="evenodd" d="M7.15482 2.15483C7.46738 1.84227 7.89131 1.66667 8.33333 1.66667H11.6667C12.1087 1.66667 12.5326 1.84227 12.8452 2.15483C13.1577 2.46739 13.3333 2.89131 13.3333 3.33334V5H15.8236C15.8295 4.99994 15.8353 4.99994 15.8412 5H16.6667C17.1269 5 17.5 5.3731 17.5 5.83334C17.5 6.29357 17.1269 6.66667 16.6667 6.66667H16.6001L15.833 15.8715C15.8231 16.5207 15.5609 17.1413 15.1011 17.6011C14.6323 18.0699 13.9964 18.3333 13.3333 18.3333H6.66667C6.00362 18.3333 5.36774 18.0699 4.8989 17.6011C4.43906 17.1413 4.17685 16.5207 4.16696 15.8715L3.39989 6.66667H3.33333C2.8731 6.66667 2.5 6.29357 2.5 5.83334C2.5 5.3731 2.8731 5 3.33333 5H4.15878C4.16467 4.99994 4.17055 4.99994 4.17641 5H6.66667V3.33334C6.66667 2.89131 6.84226 2.46739 7.15482 2.15483ZM5.07233 6.66667L5.83045 15.7641C5.83237 15.7871 5.83333 15.8102 5.83333 15.8333C5.83333 16.0543 5.92113 16.2663 6.07741 16.4226C6.23369 16.5789 6.44565 16.6667 6.66667 16.6667H13.3333C13.5543 16.6667 13.7663 16.5789 13.9226 16.4226C14.0789 16.2663 14.1667 16.0543 14.1667 15.8333C14.1667 15.8102 14.1676 15.7871 14.1695 15.7641L14.9277 6.66667H5.07233ZM11.6667 5H8.33333V3.33334H11.6667V5ZM8.33333 8.33334C8.79357 8.33334 9.16667 8.70643 9.16667 9.16667V14.1667C9.16667 14.6269 8.79357 15 8.33333 15C7.8731 15 7.5 14.6269 7.5 14.1667V9.16667C7.5 8.70643 7.8731 8.33334 8.33333 8.33334ZM11.6667 8.33334C12.1269 8.33334 12.5 8.70643 12.5 9.16667V14.1667C12.5 14.6269 12.1269 15 11.6667 15C11.2064 15 10.8333 14.6269 10.8333 14.1667V9.16667C10.8333 8.70643 11.2064 8.33334 11.6667 8.33334Z" fill="currentColor"/></symbol>
	<symbol id="WhatsApp"  xmlns="http://www.w3.org/2000/svg" viewBox="0 0 18 18" fill="none" ><path fill-rule="evenodd" clip-rule="evenodd" d="M13.333 3.94275C12.0977 2.88909 10.5203 2.32246 8.89688 2.34921C7.27345 2.37596 5.71558 2.99425 4.51564 4.08804C3.3157 5.18184 2.55617 6.67594 2.3796 8.28996C2.20302 9.90398 2.62153 11.527 3.5566 12.8543C3.72398 13.0919 3.75547 13.3996 3.63972 13.6661L2.88341 15.408L5.56246 14.9305C5.73665 14.8995 5.9162 14.9247 6.07512 15.0025C7.53336 15.7165 9.20204 15.8737 10.768 15.4448C12.334 15.0158 13.6896 14.0301 14.5804 12.6727C15.4712 11.3152 15.836 9.67933 15.6064 8.07201C15.3767 6.46468 14.5684 4.99641 13.333 3.94275ZM8.86942 0.682773C10.8987 0.649334 12.8704 1.35761 14.4146 2.67469C15.9588 3.99177 16.9692 5.8271 17.2563 7.83626C17.5433 9.84542 17.0873 11.8903 15.9738 13.5871C14.8603 15.2839 13.1658 16.516 11.2083 17.0522C9.34061 17.5638 7.35601 17.4083 5.59455 16.6177L1.64654 17.3213C1.34428 17.3752 1.03687 17.2585 0.846507 17.0176C0.656144 16.7767 0.613663 16.4506 0.735949 16.169L1.93091 13.417C0.947723 11.8367 0.519412 9.96793 0.722814 8.1087C0.943534 6.09118 1.89294 4.22355 3.39287 2.85631C4.8928 1.48907 6.84013 0.716212 8.86942 0.682773ZM6.03312 5.61685C6.26754 5.38243 6.58548 5.25073 6.917 5.25073C7.24852 5.25073 7.56646 5.38243 7.80088 5.61685C8.03531 5.85127 8.167 6.16921 8.167 6.50073V7.33407C8.167 7.66558 8.03531 7.98353 7.80088 8.21795C7.71659 8.30224 7.62149 8.37326 7.51885 8.42964C7.68255 8.89999 7.95113 9.33224 8.30998 9.69109C8.66883 10.0499 9.10107 10.3185 9.57143 10.4822C9.62781 10.3796 9.69882 10.2845 9.78312 10.2002C10.0175 9.96576 10.3355 9.83407 10.667 9.83407H11.5003C11.8319 9.83407 12.1498 9.96576 12.3842 10.2002C12.6186 10.4346 12.7503 10.7525 12.7503 11.0841C12.7503 11.4156 12.6186 11.7335 12.3842 11.9679C12.1498 12.2024 11.8319 12.3341 11.5003 12.3341H10.667C9.34092 12.3341 8.06915 11.8073 7.13147 10.8696C6.19378 9.93192 5.667 8.66015 5.667 7.33407V6.50073C5.667 6.16921 5.79869 5.85127 6.03312 5.61685Z" fill="currentColor"/></symbol>
	<symbol id="ArrowsPointingOut" xmlns="http://www.w3.org/2000/svg" fill="none" viewBox="0 0 24 24"><path stroke-linecap="round" stroke-linejoin="round" d="M3.75 3.75v4.5m0-4.5h4.5m-4.5 0L9 9M3.75 20.25v-4.5m0 4.5h4.5m-4.5 0L9 15M20.25 3.75h-4.5m4.5 0v4.5m0-4.5L15 9m5.25 11.25h-4.5m4.5 0v-4.5m0 4.5L15 15" /></symbol>
	<symbol id="AccordionIconPlus" xmlns="http://www.w3.org/2000/svg" fill="none"><path fill-rule="evenodd" clip-rule="evenodd" d="M15.7894 5.01845C15.3246 4.89923 15.0307 4.60986 14.4743 4.58197C14.4576 4.48154 14.2897 4.28593 14.2307 4.38798C13.929 4.29664 12.8314 4.31604 12.5255 4C12.3631 4 12.2007 4 12.0385 4C12.1518 4.1168 11.7525 4.22147 11.6488 4.14549C11.6192 4.12387 11.9701 4.04446 11.7462 4C11.7137 4 11.6813 4 11.6488 4C11.3128 4.10528 10.9131 4.33423 10.577 4.14549C9.49868 4.46538 8.0822 4.77758 7.36157 5.74592C7.18903 5.74047 7.4651 5.58568 7.31285 5.60043C5.49444 6.93472 4.13966 9.0074 4 11.9536C4 12.0506 4 12.1476 4 12.2446C4.17478 13.8255 4.41532 15.2163 5.26668 16.3186C5.33813 16.4328 5.36939 16.4088 5.3154 16.5609C6.68296 18.3586 8.36131 19.7115 11.0642 19.956C13.6562 20.1902 15.634 19.475 17.2027 18.2099C18.7909 16.9293 19.8434 14.8673 19.9798 12.6813C20.2303 8.65761 18.1188 6.75629 15.7894 5.01845ZM19.3461 12.8753C19.2036 14.5572 18.3817 16.1719 17.2512 17.2886C16.9035 17.6319 16.4061 17.7794 16.1307 18.2101C15.4555 18.4251 14.9968 18.696 14.3281 18.986C14.159 19.0248 14.1407 18.9139 13.9869 18.9377C13.899 19.1576 13.4071 19.1853 13.0612 19.0832C13.0529 19.1885 13.2342 19.105 13.3048 19.1317C13.2443 19.2198 12.705 19.2948 12.9636 19.1317C12.8848 19.118 12.8797 19.1776 12.8174 19.18C12.6782 19.2053 12.8962 19.2518 12.9149 19.277C12.5164 19.1881 12.1843 19.0897 11.6969 19.277C11.9858 19.0935 11.202 19.1643 10.9174 19.2285C10.92 18.9836 10.5583 19.0085 10.4302 19.0345C9.45037 18.7474 8.53568 18.2493 7.75071 17.9191C7.78643 17.8326 7.83942 17.912 7.89686 17.9191C7.00085 17.1619 6.01004 16.0792 5.41222 14.8637C5.0306 13.5302 4.7797 12.4671 4.97376 10.8384C4.98716 10.7258 5.10814 10.2186 5.21735 9.86844C5.34828 9.44913 5.72686 8.94819 5.89941 8.559C5.93696 8.47433 5.90875 8.33227 5.94813 8.26801C5.99928 8.18475 6.18076 8.13989 6.24044 8.02552C6.88291 6.79206 8.60125 5.63963 10.0405 5.21265C10.591 5.04937 11.0855 4.96389 11.5995 4.97016C12.3426 4.97925 13.0462 4.89862 13.8405 5.06715C16.9877 5.73521 19.6713 9.03751 19.3461 12.8753Z" fill="#252D29"/><path fill-rule="evenodd" clip-rule="evenodd" d="M12.3671 10.6057C12.3719 9.80091 12.4061 9.15167 12.4103 8.45019C12.4122 8.11606 12.477 7.72302 12.2643 7.35858C12.1931 7.36979 12.1222 7.33943 12.0511 7.33022C11.6908 7.66682 11.7551 8.00108 11.8623 8.3351C11.6979 8.8773 11.761 9.41823 11.7614 9.95952C11.6678 10.0037 11.59 10.1909 11.6994 10.137C11.6791 10.0187 11.7077 10.1502 11.76 10.1957C11.6913 10.5209 11.7661 10.8452 11.7238 11.1702C11.6261 11.1991 11.6261 11.2015 11.7235 11.2293C11.5802 11.7155 11.1738 11.4337 10.9286 11.647C10.8568 11.5358 10.8919 11.5698 10.7771 11.5002C9.8294 11.6043 8.98646 11.4091 8.09398 11.6921C8.00924 11.6335 8.25036 11.5732 8.09502 11.515C7.74169 11.4575 6.83236 11.7332 7.23747 12.2283C7.38877 12.4132 8.01957 12.4272 8.36395 12.4288C8.81843 12.4311 9.17177 12.3349 9.55312 12.3336C10.1016 12.3317 10.6864 12.4717 11.1077 12.2956C11.3098 12.4471 11.5141 12.2823 11.7169 12.3513C11.7236 12.6782 11.6847 13.2686 11.6491 13.5328C11.6288 13.6821 11.7104 13.8841 11.7069 14.0638C11.7035 14.2439 11.6478 14.4356 11.6428 14.5956C11.6328 14.9162 11.7602 15.2096 11.7595 15.4807C11.7588 15.7536 11.5527 16.2075 11.7233 16.4552C11.8224 16.5989 12.0072 16.7106 12.2097 16.6888C12.3305 16.5896 12.4043 16.4908 12.4553 16.3922C12.4758 15.0044 12.404 13.6172 12.4492 12.2293C13.7196 12.2854 15.2526 12.1791 16.6245 12.2358C17.3701 11.5145 16.1184 11.6638 15.7136 11.6503C14.7679 11.6188 14.3729 11.6872 13.4886 11.6921C13.2522 11.6933 12.4411 11.7535 12.361 11.6688C12.3064 11.6111 12.3655 10.8875 12.3671 10.6057Z" fill="#252D29"/>
	<symbol id="AccordionIconPlusDesk" xmlns="http://www.w3.org/2000/svg" fill="none"><g clip-path="url(#clip0_1007_1600)"><path fill-rule="evenodd" clip-rule="evenodd" d="M23.6374 2.0369C22.7076 1.79845 22.1198 1.21971 21.007 1.16394C20.9737 0.96308 20.6379 0.571867 20.5198 0.77596C19.9165 0.593286 17.7213 0.632084 17.1095 0C16.7847 0 16.46 0 16.1356 0C16.3621 0.233596 15.5635 0.442944 15.3561 0.290985C15.2968 0.247742 15.9988 0.0889121 15.551 0C15.486 0 15.421 0 15.3561 0C14.6842 0.21056 13.8848 0.668458 13.2125 0.290985C11.0559 0.930748 8.22294 1.55515 6.78169 3.49182C6.43661 3.48091 6.98875 3.17133 6.68426 3.20084C3.04745 5.86941 0.337911 10.0147 0.0585938 15.9072C0.0585938 16.1012 0.0585938 16.2952 0.0585938 16.4892C0.408146 19.6508 0.889238 22.4325 2.59194 24.6371C2.73484 24.8655 2.79736 24.8174 2.68937 25.1217C5.42449 28.717 8.78117 31.4228 14.1868 31.9118C19.3709 32.3802 23.3264 30.9499 26.4638 28.4195C29.6402 25.8585 31.7453 21.7346 32.0181 17.3625C32.5191 9.31516 28.296 5.51255 23.6374 2.0369ZM30.7506 17.7505C30.4656 21.1142 28.8218 24.3437 26.5608 26.577C25.8654 27.2637 24.8707 27.5587 24.3198 28.42C22.9695 28.85 22.052 29.3919 20.7147 29.9719C20.3765 30.0495 20.3399 29.8276 20.0322 29.8753C19.8564 30.315 18.8727 30.3704 18.1809 30.1663C18.1643 30.3768 18.5268 30.2099 18.6681 30.2633C18.5471 30.4395 17.4684 30.5894 17.9856 30.2633C17.8281 30.2358 17.818 30.355 17.6933 30.3599C17.4148 30.4104 17.8509 30.5033 17.8882 30.5538C17.0913 30.376 16.4271 30.1792 15.4523 30.5538C16.03 30.1869 14.4625 30.3283 13.8933 30.4568C13.8986 29.967 13.1751 30.0167 12.919 30.0689C10.9593 29.4946 9.12991 28.4984 7.55997 27.838C7.63142 27.665 7.73738 27.8238 7.85227 27.838C6.06026 26.3236 4.07865 24.1582 2.88303 21.7273C2.11978 19.0603 1.61798 16.9341 2.0061 13.6767C2.0329 13.4516 2.27486 12.4372 2.49328 11.7368C2.75514 10.8982 3.5123 9.89632 3.85739 9.11794C3.9325 8.9486 3.87606 8.66449 3.95482 8.53597C4.05713 8.36946 4.42008 8.27974 4.53944 8.05099C5.82438 5.58409 9.26104 3.27924 12.1395 2.42528C13.2405 2.09873 14.2295 1.92778 15.2574 1.94031C16.7437 1.95849 18.1509 1.79724 19.7395 2.1343C26.0339 3.4704 31.401 10.075 30.7506 17.7505Z" fill="#252D29"/> <path fill-rule="evenodd" clip-rule="evenodd" d="M16.6756 13.2115C16.6851 11.6018 16.7536 10.3034 16.7619 8.90042C16.7658 8.23216 16.8953 7.44609 16.4699 6.71721C16.3275 6.73964 16.1857 6.67891 16.0435 6.6605C15.3229 7.33369 15.4515 8.00221 15.666 8.67025C15.3371 9.75463 15.4634 10.8365 15.4641 11.9191C15.2769 12.0074 15.1213 12.3818 15.3401 12.274C15.2996 12.0373 15.3568 12.3005 15.4614 12.3915C15.324 13.0418 15.4736 13.6905 15.389 14.3405C15.1936 14.3982 15.1936 14.4031 15.3883 14.4586C15.1017 15.431 14.289 14.8674 13.7986 15.294C13.6549 15.0717 13.7251 15.1397 13.4955 15.0004C11.6002 15.2087 9.9143 14.8182 8.12935 15.3843C7.95987 15.2671 8.44211 15.1464 8.13142 15.03C7.42478 14.915 5.60614 15.4663 6.41635 16.4566C6.71895 16.8264 7.98053 16.8544 8.66929 16.8575C9.57824 16.8621 10.2849 16.6698 11.0476 16.6673C12.1446 16.6635 13.3142 16.9434 14.1567 16.5911C14.561 16.8942 14.9696 16.5645 15.3751 16.7025C15.3886 17.3564 15.3108 18.5371 15.2396 19.0655C15.199 19.3642 15.3622 19.7682 15.3551 20.1275C15.3484 20.4877 15.2369 20.8712 15.2269 21.1911C15.2069 21.8324 15.4617 22.4192 15.4603 22.9613C15.4589 23.5072 15.0467 24.4149 15.388 24.9103C15.5862 25.1978 15.9557 25.4211 16.3607 25.3776C16.6024 25.1792 16.7499 24.9815 16.8519 24.7844C16.893 22.0088 16.7493 19.2343 16.8397 16.4585C19.3806 16.5708 22.4465 16.3583 25.1903 16.4716C26.6815 15.029 24.1781 15.3277 23.3686 15.3007C21.4771 15.2375 20.6872 15.3745 18.9184 15.3842C18.4458 15.3866 16.8234 15.5069 16.6634 15.3376C16.5541 15.2223 16.6723 13.7749 16.6756 13.2115Z" fill="#252D29"/></g><defs><clipPath id="clip0_1007_1600"><rect width="32" height="32" fill="white"/></clipPath></defs>
	<symbol id="AccordionIconLess" xmlns="http://www.w3.org/2000/svg" fill="none"><g clip-path="url(#clip0_1007_1502)"><path fill-rule="evenodd" clip-rule="evenodd" d="M31.9522 14.5832C31.3383 6.00084 23.6958 -0.84832 14.3736 0.0853615C12.2552 0.297396 10.7875 0.667544 9.03207 1.73947C8.60232 1.78569 8.54931 1.60569 8.25512 1.73947C7.96902 2.44896 7.02332 2.51423 6.21562 3.29629C6.33176 3.05547 6.54825 2.916 6.79833 2.80978C6.50455 2.64924 6.2055 3.31575 5.82714 3.39359C6.05294 3.65184 6.08734 3.13533 6.31274 3.39359C5.5722 3.60116 4.7904 4.14767 4.46667 4.88634C4.45938 4.87013 4.43227 4.85837 4.37036 4.8531C4.00859 5.33676 3.44489 5.51677 3.39917 6.50721C3.08029 6.34301 2.97103 6.5587 2.71933 6.70181C1.62796 8.88418 0.197476 11.0597 0.485595 13.6102C0.345582 13.5883 0.451604 13.3199 0.291357 13.3183C-0.0740532 13.688 0.409923 14.3391 0 14.5832C0 15.2643 0 15.9454 0 16.6265C0.98333 25.6463 6.82747 31.2131 15.7333 32C16.1218 32 16.5102 32 16.8987 32C21.7494 31.7089 25.3286 29.486 27.9699 26.3566C28.4518 25.7857 29.1094 25.2984 29.4271 24.7997C31.0558 22.2403 32.2585 18.8709 31.9522 14.5832ZM4.44967 4.93094C4.42094 5.00148 4.39018 5.07121 4.36995 5.145C4.13768 5.12554 4.37764 5.01162 4.44967 4.93094ZM30.5925 17.8914C29.667 24.8464 23.6691 30.654 16.2189 30.5405C15.1886 30.5247 14.355 30.0816 13.3053 30.2482C12.0958 29.7082 10.9643 29.265 9.51766 28.7887C9.52212 28.4927 9.3125 28.41 9.22631 28.2049C8.76742 28.682 7.67564 27.0729 6.99257 27.1346C7.06501 26.7377 6.67977 26.7997 6.79833 26.3562C5.87692 25.9609 5.641 24.9445 4.56459 24.5074C4.51604 24.2009 4.77623 24.1272 4.56459 23.9236C3.2628 22.2549 2.53885 19.8739 1.94238 17.9883C2.1261 18.0613 2.00996 18.2786 2.23374 18.0852C1.87278 16.022 1.87844 13.6037 2.52509 11.566C2.87472 10.4637 3.64561 9.13352 4.37036 7.96591C5.32253 6.43221 6.77972 5.1073 8.158 3.87928C8.67233 3.88212 9.15185 3.51116 9.51766 3.10087C10.7418 2.67316 12.0383 2.3176 13.1111 1.73866C13.7011 1.90124 14.9855 1.54609 15.8304 1.54406C19.4805 1.53474 22.8412 2.93384 25.2509 4.56038C25.448 4.68688 25.4828 4.97675 25.6394 5.14419C27.112 5.80989 27.6607 7.40035 28.7472 8.45241C30.1607 11.2766 31.0558 14.4072 30.5925 17.8914Z" fill="#252D29"/><path fill-rule="evenodd" clip-rule="evenodd" d="M21.4635 15.0692C21.4647 14.9407 21.6339 14.9801 21.6578 14.8746C21.2021 15.1828 21.3628 14.8495 20.8808 14.7773C20.7303 14.886 20.6785 15.0936 20.3952 15.0692C20.4094 14.9541 20.5684 14.8487 20.3952 14.7773C20.2184 15.0997 19.8279 14.7741 19.6183 15.1665C19.7028 14.8544 19.469 14.8625 19.3269 14.7773C18.4407 15.1017 17.4545 14.5179 16.3162 15.2638C16.1548 15.0705 16.3251 15.1402 16.3162 14.8746C12.0616 15.1759 8.66163 14.7186 5.34177 15.2638C5.20378 15.5894 5.20378 16.2032 5.34177 16.5288C7.31774 17.0035 10.3802 16.6597 12.8199 16.6261C17.2684 16.5652 22.143 16.6658 26.8051 16.3342C26.9249 16.0589 26.9249 15.7337 26.8051 15.4584C24.6122 15.0401 22.4987 14.9837 21.4635 15.0692Z" fill="#252D29"/></g><defs><clipPath id="clip0_1007_1502"><rect width="32" height="32" fill="white"/></clipPath></defs></symbol>
	<symbol id="ChevronRightCardDesk"  xmlns="http://www.w3.org/2000/svg" fill="none"><path d="M9 18L15 12L9 6" stroke="#BABD8D" stroke-width="2" stroke-linecap="round" stroke-linejoin="round"/></symbol>
	<symbol id="ChevronRightCardTablet" xmlns="http://www.w3.org/2000/svg" fill="none"><path d="M4.5 9.2793L7.5 6.2793L4.5 3.2793" stroke="#BABD8D" stroke-width="1.03467" stroke-linecap="round" stroke-linejoin="round"/></symbol>
	<symbol id="ChevronRightCardMobile" xmlns="http://www.w3.org/2000/svg" fill="none"><path d="M5.25 10.499L8.75 6.99902L5.25 3.49902" stroke="#625E2D" stroke-width="1.03467" stroke-linecap="round" stroke-linejoin="round"/></symbol>
	<symbol id="ChevronRightSliderMobile" xmlns="http://www.w3.org/2000/svg" fill="none"><path fill-rule="evenodd" clip-rule="evenodd" d="M3.35196 8.41706C4.40123 8.406 5.46582 8.67077 6.52319 8.49289C6.64482 8.52385 6.84723 8.84992 6.95564 8.64455C6.87906 8.64771 6.77275 8.60885 6.88356 8.56872C7.65295 8.58104 8.38689 8.61011 8.82954 8.49289C8.86708 8.64265 8.40461 8.6951 8.75747 8.72038C8.91303 8.38578 9.61334 9.00411 9.98272 8.72038C9.60824 8.71753 10.4293 8.43002 10.4872 8.64455C10.4025 8.65624 10.2827 8.63128 10.271 8.72038C10.6872 8.70869 11.256 8.7109 11.7125 8.49289C11.7194 8.61201 11.7029 8.75577 11.8566 8.72038C12.7308 8.73744 13.3552 8.62875 14.163 8.79621C13.796 9.10395 13.6576 9.66477 13.3702 9.85782C13.3416 9.72733 13.4771 9.66351 13.3702 9.63033C12.9374 10.1643 12.4611 10.4831 12.0008 10.9953C11.7389 11.2866 11.5563 11.6793 11.28 11.981C10.58 12.7453 9.69563 13.3539 9.18991 14.0284C8.90762 14.4054 8.36948 14.7476 8.32503 15.1659C8.28839 15.5106 8.3965 15.788 8.6854 16C8.85357 16 9.02174 16 9.18991 16C10.0428 15.2632 10.9515 14.2414 11.7846 13.346C12.5479 12.5251 13.405 11.6133 14.2351 10.7678C14.7248 10.2689 15.0636 9.72986 15.4603 9.32701C15.6723 9.11185 15.4507 9.50142 15.6765 9.32701C15.9945 9.08152 16.3492 8.28215 16.6855 8.11374C16.6855 7.98736 16.6855 7.86098 16.6855 7.7346C14.3435 5.11469 11.7993 2.39937 9.04577 -6.67891e-07C8.99772 -6.72092e-07 8.94967 -6.76292e-07 8.90162 -6.80493e-07C7.76136 0.548814 9.52115 1.79747 9.98272 2.27488C11.6356 3.98389 13.4194 5.88973 14.7396 7.35545C10.7101 7.5861 5.17092 7.21169 0.829396 7.58294C0.825492 7.67994 0.7369 7.68815 0.757621 7.81042C0.733597 7.81042 0.709573 7.81042 0.685548 7.81042C0.685548 7.88625 0.685548 7.96208 0.685548 8.03791C1.07955 8.67046 2.28498 8.42844 3.35196 8.41706Z" fill="#616161"/></symbol>
	<symbol id="ChevronLeftSliderMobile" xmlns="http://www.w3.org/2000/svg" fill="none"><path fill-rule="evenodd" clip-rule="evenodd" d="M13.6471 7.58294C12.5978 7.594 11.5332 7.32923 10.4758 7.50711C10.3542 7.47614 10.1518 7.15008 10.0434 7.35545C10.12 7.35229 10.2263 7.39115 10.1155 7.43128C9.34608 7.41896 8.61213 7.38989 8.16948 7.50711C8.13194 7.35735 8.59441 7.3049 8.24155 7.27962C8.08599 7.61422 7.38568 6.99589 7.0163 7.27962C7.39079 7.28246 6.56975 7.56998 6.51179 7.35545C6.59648 7.34376 6.7163 7.36872 6.72801 7.27962C6.31179 7.29131 5.74301 7.2891 5.28654 7.50711C5.27963 7.38799 5.29615 7.24423 5.1424 7.27962C4.2682 7.26256 3.64387 7.37125 2.83605 7.20379C3.20302 6.89605 3.34146 6.33523 3.62885 6.14218C3.65738 6.27267 3.52195 6.33649 3.62885 6.36967C4.0616 5.8357 4.53788 5.5169 4.99825 5.00474C5.26012 4.71343 5.4427 4.3207 5.71898 4.01896C6.419 3.25466 7.3034 2.64613 7.80911 1.97156C8.0914 1.59463 8.62955 1.25245 8.67399 0.834123C8.71063 0.489415 8.60252 0.212006 8.31363 0C8.14545 0 7.97728 0 7.80911 0C6.95624 0.736809 6.04752 1.75861 5.21447 2.65403C4.45109 3.47488 3.59402 4.38673 2.76397 5.23223C2.27417 5.73112 1.93543 6.27014 1.53872 6.67299C1.32671 6.88815 1.54833 6.49858 1.3225 6.67299C1.00448 6.91848 0.649819 7.71785 0.313477 7.88626C0.313477 8.01264 0.313477 8.13902 0.313477 8.2654C2.65556 10.8853 5.19975 13.6006 7.95326 16C8.00131 16 8.04936 16 8.09741 16C9.23767 15.4512 7.47788 14.2025 7.0163 13.7251C5.36342 12.0161 3.5796 10.1103 2.25946 8.64455C6.28896 8.4139 11.8281 8.78831 16.1696 8.41706C16.1735 8.32006 16.2621 8.31185 16.2414 8.18957C16.2654 8.18957 16.2895 8.18957 16.3135 8.18957C16.3135 8.11374 16.3135 8.03791 16.3135 7.96209C15.9195 7.32954 14.714 7.57156 13.6471 7.58294Z" fill="#616161"/></symbol>
	<symbol id="SliderAspasDesk" xmlns="http://www.w3.org/2000/svg" fill="none"><path fill-rule="evenodd" clip-rule="evenodd" d="M144.799 146.592C137.883 135.823 133.515 130.062 126.437 120.532C126.146 119.82 126.971 117.68 125.599 117.855C125.891 118.225 126.089 118.889 125.498 118.477C122.944 114.536 120.397 111.458 118.375 109.425C119.086 108.967 119.486 110.425 120.24 109.71C118.939 109.025 117.28 108.21 118.521 106.58C117.74 105.505 116.96 104.43 116.18 103.356C115.922 104.779 113.293 102.695 113.276 101.637C113.27 101.258 115.752 103.485 114.88 101.564C114.707 101.325 114.533 101.086 114.36 100.847C112.028 100.077 111.437 96.9657 108.753 96.1681C110.221 95.6491 109.578 94.8076 108.797 93.945C108.918 93.8573 109.038 93.7695 109.159 93.6817C109.072 93.5623 108.986 93.4429 108.899 93.3234C107.886 92.9934 106.072 91.7061 106.197 90.3621C106.317 90.2744 106.438 90.1866 106.558 90.0988C105.865 89.1434 105.171 88.188 104.478 87.2325C99.6811 83.6272 97.722 77.5343 93.6133 73.7859C92.5218 72.7895 90.8253 72.9072 90.55 71.0879C91.0161 70.8419 91.3537 71.3674 91.6916 71.8995C90.5677 69.1077 86.0688 59.7597 81.7657 60.5076C81.6452 60.5953 81.5248 60.6831 81.4043 60.7709C77.4841 67.2354 68.6582 71.2831 67.9007 77.1825C84.0811 90.6293 94.4085 113.101 93.6551 130.174C92.6909 130.879 92.0492 129.614 91.0679 130.416C73.5962 138.163 64.4231 155.654 63.7701 168.929C63.6434 171.504 64.877 173.721 65.141 176.146C65.5179 179.58 65.238 180.809 66.9308 184.702C68.2246 187.68 68.983 191.558 70.4835 194.164C81.6486 213.581 107.604 220.755 126.236 211.603C152.772 198.571 159.227 169.055 144.799 146.592ZM93.8784 208.889C84.2166 205.229 75.0365 196.107 70.7623 184.649C70.4676 179.083 69.2745 173.379 69.6675 167.916C69.986 166.598 70.1357 167.714 71.0118 167.484C69.1261 164.246 72.872 160.193 72.2146 156.201C77.304 154.586 75.3971 151.502 77.8822 148.785C78.0761 149.239 77.3405 149.552 77.681 150.027C79.4369 149.04 79.7958 144.837 80.9202 143.833C82.9998 141.975 79.6997 145.361 82.4216 144.382C83.6817 143.93 83.6446 142.521 85.5155 141.032C86.4929 140.254 89.4352 139.991 90.9938 138.684C92.3169 137.576 94.9492 135.951 97.0337 135.048C96.87 135.067 97.0643 134.983 98.019 134.661C97.7127 134.766 97.3791 134.899 97.0337 135.048C97.4126 135.003 99.7201 134.401 99.2619 134.851C102.535 131.644 100.049 129.195 99.0191 124.621C99.8543 124.414 99.5453 125.235 99.7992 125.696C101.308 125.906 99.7946 122.949 99.7859 121.871C98.9624 114.396 95.9104 104.117 91.8296 96.4457C91.4375 95.7089 90.5335 93.3343 89.3878 93.8427C87.5248 86.0616 80.6185 81.8843 76.1252 75.57C78.0626 73.9668 80.0869 71.846 82.2116 69.4923C86.6309 73.6558 90.2991 82.4587 95.1567 85.8052C95.9319 86.4546 94.8376 86.8183 95.2141 87.4067C105.399 98.6351 112.311 112.919 124.441 126.913C132.257 135.931 140.456 145.933 144.985 155.218C151.795 169.184 147.277 187.167 137.631 198.372C127.235 210.444 107.99 214.23 93.8784 208.889Z" fill="#FFA500"/><path fill-rule="evenodd" clip-rule="evenodd" d="M249.598 144.493C242.683 133.724 238.315 127.962 231.237 118.432C230.946 117.72 231.771 115.58 230.4 115.756C230.691 116.125 230.889 116.789 230.298 116.377C227.744 112.436 225.197 109.358 223.176 107.325C223.886 106.867 224.287 108.326 225.04 107.61C223.74 106.925 222.08 106.11 223.321 104.48C222.541 103.405 221.761 102.33 220.981 101.255C220.722 102.679 218.094 100.595 218.077 99.5372C218.071 99.1581 220.552 101.385 219.681 99.4639C219.507 99.225 219.334 98.9861 219.161 98.7473C216.829 97.9768 216.238 94.8654 213.555 94.0678C215.022 93.5487 214.379 92.7071 213.599 91.8446C213.719 91.7568 213.84 91.669 213.96 91.5813C213.873 91.4618 213.787 91.3424 213.7 91.223C212.687 90.8929 210.873 89.6057 210.998 88.2616C211.119 88.1738 211.239 88.086 211.36 87.9983C210.666 87.0428 209.973 86.0873 209.279 85.1319C204.483 81.5264 202.524 75.4333 198.415 71.6848C197.324 70.6884 195.628 70.8061 195.352 68.9868C195.818 68.7408 196.156 69.2662 196.494 69.7983C195.37 67.0065 190.871 57.6581 186.569 58.4061C186.448 58.4939 186.328 58.5817 186.207 58.6694C182.287 65.1343 173.461 69.1823 172.704 75.0819C188.883 88.5291 199.21 111.002 198.456 128.076C197.492 128.78 196.851 127.516 195.869 128.317C178.398 136.065 169.225 153.556 168.572 166.832C168.445 169.407 169.679 171.624 169.943 174.05C170.32 177.484 170.04 178.713 171.732 182.606C173.026 185.584 173.785 189.462 175.285 192.068C186.449 211.486 212.404 218.66 231.035 209.507C257.569 196.475 264.025 166.957 249.598 144.493ZM198.679 206.793C189.017 203.133 179.838 194.012 175.564 182.553C175.269 176.986 174.076 171.282 174.469 165.819C174.788 164.501 174.937 165.617 175.814 165.388C173.928 162.149 177.674 158.096 177.016 154.103C182.106 152.488 180.199 149.404 182.684 146.687C182.878 147.141 182.142 147.454 182.483 147.929C184.239 146.942 184.597 142.739 185.722 141.735C187.801 139.877 184.501 143.263 187.223 142.284C188.483 141.831 188.446 140.423 190.317 138.934C191.294 138.156 194.237 137.893 195.795 136.586C197.118 135.478 199.75 133.852 201.835 132.95C201.671 132.968 201.865 132.884 202.82 132.563C202.514 132.667 202.18 132.801 201.835 132.95C202.214 132.904 204.521 132.302 204.063 132.753C207.336 129.546 204.85 127.096 203.82 122.522C204.655 122.315 204.346 123.136 204.6 123.597C206.109 123.807 204.596 120.85 204.587 119.772C203.764 112.297 200.712 102.017 196.631 94.3456C196.239 93.6087 195.336 91.2341 194.19 91.7425C192.327 83.9611 185.421 79.7838 180.928 73.4692C182.865 71.8659 184.89 69.745 187.014 67.3912C191.433 71.5548 195.101 80.358 199.959 83.7046C200.734 84.354 199.64 84.7177 200.016 85.3062C210.2 96.5349 217.112 110.819 229.241 124.814C237.056 133.832 245.255 143.835 249.784 153.12C256.593 167.086 252.075 185.07 242.429 196.275C232.034 208.348 212.79 212.134 198.679 206.793Z" fill="#FFA500"/></symbol>
	<symbol id="SliderAspasMd" xmlns="http://www.w3.org/2000/svg" fill="none"><path fill-rule="evenodd" clip-rule="evenodd" d="M74.6103 75.7482C71.0421 70.1808 68.7882 67.202 65.1363 62.2751C64.9861 61.9069 65.4118 60.8008 64.7042 60.8914C64.8545 61.0826 64.9569 61.4255 64.6519 61.2128C63.3342 59.1754 62.0198 57.5839 60.977 56.5328C61.3435 56.2959 61.5501 57.0501 61.9389 56.6801C61.268 56.3262 60.4116 55.9048 61.052 55.0621C60.6495 54.5064 60.2469 53.9507 59.8444 53.395C59.711 54.1307 58.3547 53.0536 58.3458 52.5067C58.3428 52.3107 59.6233 53.462 59.1736 52.4688C59.0841 52.3453 58.9947 52.2218 58.9052 52.0983C57.7021 51.7 57.3969 50.0915 56.0126 49.6791C56.7697 49.4108 56.4379 48.9757 56.0353 48.5297C56.0975 48.4844 56.1596 48.439 56.2218 48.3936C56.177 48.3319 56.1323 48.2701 56.0876 48.2084C55.5649 48.0378 54.6291 47.3722 54.6936 46.6774C54.7557 46.632 54.8179 46.5866 54.88 46.5413C54.5222 46.0473 54.1644 45.5533 53.8067 45.0594C51.3317 43.1954 50.3209 40.0454 48.201 38.1075C47.6378 37.5923 46.7626 37.6532 46.6205 36.7126C46.861 36.5854 47.0352 36.8571 47.2095 37.1322C46.6296 35.6888 44.3085 30.8559 42.0883 31.2426C42.0261 31.2879 41.964 31.3333 41.9018 31.3787C39.8792 34.7209 35.3254 36.8135 34.9346 39.8635C43.2829 46.8155 48.6113 58.4337 48.2226 67.2604C47.7251 67.6247 47.394 66.9708 46.8877 67.3853C37.8732 71.3907 33.1403 80.4331 32.8034 87.2963C32.7381 88.6278 33.3745 89.7738 33.5108 91.0278C33.7052 92.8032 33.5608 93.4385 34.4342 95.4511C35.1017 96.9909 35.493 98.9955 36.2672 100.343C42.0278 110.382 55.4196 114.091 65.033 109.359C78.7237 102.622 82.0543 87.3616 74.6103 75.7482ZM48.3378 107.956C43.3528 106.063 38.6163 101.348 36.411 95.4238C36.259 92.5459 35.6434 89.5971 35.8462 86.7729C36.0105 86.0912 36.0877 86.6685 36.5398 86.5497C35.5669 84.8753 37.4996 82.7799 37.1603 80.716C39.7862 79.8809 38.8024 78.2865 40.0845 76.882C40.1846 77.1169 39.8051 77.2784 39.9807 77.5241C40.8867 77.0138 41.0719 74.8408 41.652 74.3217C42.725 73.3613 41.0223 75.1118 42.4267 74.6057C43.0768 74.3718 43.0577 73.6435 44.0229 72.8739C44.5273 72.4715 46.0453 72.3355 46.8495 71.6599C47.5321 71.0872 48.8903 70.2467 49.9658 69.7801C49.8813 69.7898 49.9816 69.7462 50.4741 69.5801C50.3161 69.6341 50.144 69.7031 49.9658 69.7801C50.1613 69.7565 51.3518 69.4455 51.1154 69.6783C52.8044 68.0204 51.5214 66.7541 50.9901 64.3891C51.421 64.2822 51.2616 64.7065 51.3927 64.9448C52.1712 65.0537 51.3903 63.5247 51.3858 62.9675C50.9609 59.103 49.3862 53.7888 47.2807 49.8226C47.0784 49.4417 46.612 48.214 46.0209 48.4768C45.0597 44.454 41.4963 42.2944 39.1781 39.0298C40.1776 38.201 41.2221 37.1045 42.3183 35.8877C44.5985 38.0402 46.491 42.5913 48.9974 44.3215C49.3973 44.6572 48.8327 44.8452 49.027 45.1494C54.2818 50.9545 57.848 58.3393 64.1066 65.5744C68.1391 70.2364 72.3694 75.4077 74.7062 80.208C78.2197 87.4283 75.8889 96.7254 70.9117 102.518C65.5481 108.76 55.6187 110.717 48.3378 107.956Z" fill="#FFA500"/><path fill-rule="evenodd" clip-rule="evenodd" d="M128.682 74.6598C125.114 69.0922 122.86 66.1134 119.208 61.1863C119.058 60.8181 119.484 59.7119 118.776 59.8026C118.926 59.9937 119.029 60.3367 118.724 60.1239C117.406 58.0865 116.092 56.4949 115.049 55.4438C115.416 55.2069 115.622 55.9611 116.011 55.5911C115.34 55.2372 114.484 54.8158 115.124 53.973C114.722 53.4173 114.319 52.8616 113.917 52.3059C113.783 53.0417 112.427 51.9645 112.418 51.4176C112.415 51.2216 113.696 52.3729 113.246 51.3797C113.156 51.2562 113.067 51.1327 112.978 51.0092C111.774 50.6108 111.469 49.0022 110.085 48.5899C110.842 48.3215 110.51 47.8864 110.108 47.4405C110.17 47.3951 110.232 47.3497 110.294 47.3044C110.249 47.2426 110.205 47.1809 110.16 47.1191C109.637 46.9485 108.702 46.283 108.766 45.5881C108.828 45.5427 108.89 45.4973 108.953 45.4519C108.595 44.958 108.237 44.464 107.879 43.97C105.404 42.106 104.394 38.9558 102.274 37.0179C101.711 36.5027 100.836 36.5636 100.694 35.623C100.934 35.4958 101.108 35.7675 101.282 36.0426C100.703 34.5992 98.3816 29.7661 96.1615 30.1528C96.0994 30.1981 96.0372 30.2435 95.9751 30.2889C93.9525 33.6312 89.3989 35.7241 89.0081 38.7742C97.3559 45.7264 102.684 57.3449 102.295 66.172C101.798 66.5363 101.467 65.8825 100.96 66.2969C91.9461 70.3026 87.2133 79.3455 86.8763 86.209C86.8109 87.5405 87.4473 88.6866 87.5836 89.9406C87.778 91.7161 87.6335 92.3514 88.5069 94.364C89.1744 95.9039 89.5656 97.9086 90.3397 99.2562C96.1 109.295 109.491 113.004 119.104 108.272C132.794 101.534 136.125 86.2736 128.682 74.6598ZM102.41 106.869C97.425 104.977 92.6888 100.261 90.4837 94.3367C90.3317 91.4587 89.7161 88.5098 89.919 85.6854C90.0833 85.0038 90.1605 85.5811 90.6125 85.4623C89.6397 83.7878 91.5723 81.6923 91.2331 79.6283C93.8589 78.7932 92.8751 77.1987 94.1573 75.7941C94.2573 76.029 93.8778 76.1905 94.0535 76.4363C94.9594 75.9259 95.1446 73.7528 95.7247 73.2337C96.7977 72.2733 95.095 74.0238 96.4993 73.5177C97.1494 73.2837 97.1303 72.5555 98.0956 71.7858C98.5999 71.3834 100.118 71.2474 100.922 70.5717C101.605 69.999 102.963 69.1584 104.038 68.6918C103.954 68.7015 104.054 68.6579 104.547 68.4917C104.388 68.5458 104.216 68.6148 104.038 68.6918C104.234 68.6682 105.424 68.3571 105.188 68.5899C106.877 66.932 105.594 65.6657 105.063 63.3006C105.493 63.1936 105.334 63.618 105.465 63.8563C106.244 63.9652 105.463 62.4361 105.458 61.8789C105.033 58.0142 103.459 52.6998 101.354 48.7335C101.151 48.3526 100.685 47.1248 100.094 47.3877C99.1327 43.3647 95.5695 41.205 93.2514 37.9404C94.2509 37.1115 95.2953 36.015 96.3915 34.7981C98.6715 36.9506 100.564 41.5019 103.07 43.2321C103.47 43.5679 102.906 43.7559 103.1 44.0601C108.354 49.8654 111.92 57.2504 118.178 64.4858C122.211 69.1479 126.441 74.3194 128.777 79.1198C132.291 86.3404 129.96 95.6379 124.983 101.431C119.619 107.673 109.69 109.63 102.41 106.869Z" fill="#FFA500"/></symbol>
	<symbol id="SliderAspasMobile" xmlns="http://www.w3.org/2000/svg" fill="none"><path fill-rule="evenodd" clip-rule="evenodd" d="M32.0275 31.6007C30.5499 29.2893 29.615 28.0536 28.1005 26.0095C28.0387 25.8564 28.2202 25.3938 27.9237 25.4337C27.986 25.513 28.0279 25.6557 27.9008 25.5679C27.3551 24.722 26.8095 24.0622 26.3759 23.6269C26.5301 23.527 26.6143 23.8409 26.7782 23.6855C26.4984 23.5399 26.1411 23.3666 26.4117 23.0133C26.2448 22.7827 26.0779 22.5521 25.911 22.3215C25.8529 22.6288 25.2882 22.1836 25.2861 21.9555C25.2854 21.8738 25.8182 22.3501 25.6328 21.9372C25.5957 21.886 25.5587 21.8348 25.5216 21.7835C25.019 21.6209 24.896 20.951 24.3175 20.7831C24.6353 20.6689 24.4977 20.4885 24.3305 20.3037C24.3566 20.2846 24.3828 20.2654 24.4089 20.2463C24.3904 20.2207 24.3719 20.1951 24.3533 20.1695C24.135 20.0999 23.7451 19.8251 23.7741 19.5351C23.8003 19.516 23.8265 19.4969 23.8526 19.4777C23.7043 19.2728 23.5559 19.0678 23.4076 18.8629C22.3768 18.0928 21.9629 16.782 21.081 15.98C20.8467 15.7669 20.48 15.7948 20.4233 15.403C20.5244 15.3492 20.5965 15.462 20.6687 15.5762C20.4302 14.9759 19.4726 12.9671 18.5418 13.135C18.5157 13.1541 18.4895 13.1732 18.4633 13.1923C17.6065 14.5923 15.6935 15.4787 15.5208 16.7519C18.9958 19.6266 21.1924 24.4565 21.0035 28.1391C20.7941 28.2925 20.6574 28.0208 20.4442 28.1952C16.6577 29.8926 14.649 33.6781 14.4876 36.5416C14.4563 37.0971 14.7194 37.5732 14.7727 38.0958C14.8488 38.8357 14.7865 39.1011 15.1462 39.9379C15.4212 40.5781 15.5791 41.4131 15.8992 41.9728C18.2815 46.1427 23.878 47.6497 27.9174 45.6476C33.6701 42.7969 35.11 36.4223 32.0275 31.6007ZM20.9309 45.112C18.8492 44.3376 16.8799 42.3849 15.9741 39.9206C15.9189 38.7208 15.6699 37.4927 15.7632 36.3142C15.8341 36.0294 15.8647 36.2699 16.0543 36.2191C15.6519 35.5236 16.4674 34.6439 16.3315 33.7841C17.4335 33.428 17.0262 32.7659 17.5673 32.1763C17.6085 32.274 17.4491 32.3424 17.5219 32.4444C17.9028 32.2289 17.9868 31.322 18.2312 31.1038C18.6834 30.7 17.9652 31.4352 18.5548 31.2199C18.8277 31.1204 18.8218 30.8168 19.2283 30.4929C19.4407 30.3235 20.0767 30.2623 20.4154 29.9781C20.703 29.7372 21.2742 29.3826 21.7259 29.1848C21.6905 29.1891 21.7326 29.1706 21.9394 29.0999C21.873 29.1229 21.8008 29.1522 21.7259 29.1848C21.8078 29.1744 22.3073 29.0411 22.2076 29.1389C22.9197 28.4424 22.3863 27.9181 22.1708 26.9333C22.3516 26.8874 22.2836 27.0649 22.3377 27.1639C22.6634 27.207 22.3409 26.5716 22.3407 26.3392C22.1743 24.7286 21.5307 22.5169 20.6609 20.8689C20.5773 20.7107 20.3856 20.2 20.1373 20.3114C19.7468 18.6364 18.2611 17.7463 17.3001 16.3916C17.7211 16.0429 18.1617 15.5825 18.6244 15.0717C19.5727 15.9627 20.3517 17.8553 21.396 18.5694C21.5625 18.7082 21.3255 18.7883 21.4059 18.9147C23.589 21.3202 25.0604 24.3896 27.6595 27.3887C29.3342 29.3211 31.0902 31.4654 32.0544 33.4605C33.5042 36.4615 32.5006 40.3461 30.3993 42.777C28.1349 45.3962 23.9714 46.242 20.9309 45.112Z" fill="#FFA500"/><path fill-rule="evenodd" clip-rule="evenodd" d="M54.6722 30.988C53.1947 28.6765 52.2598 27.4408 50.7454 25.3967C50.6836 25.2435 50.8652 24.7809 50.5686 24.8208C50.631 24.9001 50.6728 25.0429 50.5458 24.955C50.0001 24.1092 49.4545 23.4493 49.021 23.014C49.1751 22.9141 49.2594 23.228 49.4233 23.0725C49.1434 22.9269 48.7861 22.7537 49.0567 22.4003C48.8898 22.1697 48.723 21.9391 48.5561 21.7086C48.498 22.0158 47.9334 21.5706 47.9312 21.3425C47.9306 21.2608 48.4633 21.7372 48.2779 21.3242C48.2409 21.273 48.2038 21.2218 48.1667 21.1705C47.6641 21.008 47.5411 20.338 46.9627 20.1701C47.2805 20.0559 47.1429 19.8754 46.9756 19.6906C47.0018 19.6715 47.028 19.6524 47.0541 19.6333C47.0356 19.6077 47.017 19.5821 46.9985 19.5564C46.7801 19.4868 46.3903 19.212 46.4194 18.922C46.4455 18.9029 46.4717 18.8838 46.4978 18.8647C46.3495 18.6597 46.2012 18.4548 46.0528 18.2498C45.0221 17.4797 44.6082 16.1688 43.7264 15.3669C43.4921 15.1537 43.1254 15.1817 43.0688 14.7898C43.1698 14.736 43.2419 14.8488 43.3141 14.963C43.0756 14.3627 42.1181 12.3539 41.1873 12.5217C41.1612 12.5409 41.135 12.56 41.1089 12.5791C40.252 13.9791 38.3391 14.8655 38.1664 16.1389C41.6412 19.0136 43.8377 23.8437 43.6487 27.5264C43.4393 27.6799 43.3026 27.4081 43.0894 27.5825C39.303 29.28 37.2944 33.0657 37.1329 35.9293C37.1016 36.4849 37.3647 36.961 37.418 37.4836C37.4941 38.2236 37.4318 38.489 37.7915 39.3258C38.0664 39.9661 38.2243 40.801 38.5444 41.3608C40.9266 45.5308 46.5228 47.0378 50.5621 45.0356C56.3145 42.1847 57.7545 35.8098 54.6722 30.988ZM43.5758 44.5C41.4942 43.7256 39.525 41.7729 38.6193 39.3085C38.5642 38.1086 38.3152 36.8805 38.4085 35.7019C38.4794 35.4171 38.51 35.6577 38.6996 35.6068C38.2972 34.9113 39.1127 34.0315 38.9768 33.1717C40.0788 32.8156 39.6715 32.1535 40.2126 31.5638C40.2538 31.6615 40.0944 31.73 40.1672 31.832C40.5481 31.6164 40.6321 30.7095 40.8765 30.4913C41.3286 30.0875 40.6105 30.8227 41.2 30.6074C41.4729 30.5079 41.4671 30.2042 41.8735 29.8803C42.0859 29.711 42.7219 29.6497 43.0606 29.3656C43.3482 29.1246 43.9194 28.77 44.3711 28.5722C44.3357 28.5765 44.3778 28.558 44.5845 28.4872C44.5182 28.5103 44.4459 28.5396 44.3711 28.5722C44.453 28.5618 44.9524 28.4285 44.8527 28.5263C45.5649 27.8298 45.0314 27.3054 44.816 26.3206C44.9968 26.2747 44.9287 26.4522 44.9829 26.5512C45.3085 26.5943 44.9861 25.9588 44.9859 25.7264C44.8195 24.1158 44.176 21.904 43.3062 20.256C43.2226 20.0977 43.031 19.587 42.7827 19.6984C42.3922 18.0234 40.9066 17.1332 39.9456 15.7785C40.3666 15.4298 40.8072 14.9693 41.2698 14.4585C42.2181 15.3495 42.9971 17.2422 44.0413 17.9563C44.2078 18.0952 43.9708 18.1753 44.0512 18.3016C46.2342 20.7072 47.7054 23.7768 50.3044 26.7759C51.979 28.7084 53.7349 30.8527 54.6991 32.8479C56.1487 35.849 55.1451 39.7338 53.0439 42.1649C50.7795 44.7842 46.6162 45.63 43.5758 44.5Z" fill="#FFA500"/></symbol>
	<symbol id="HeaderMiniIconMobile" xmlns="http://www.w3.org/2000/svg" fill="none"><path d="M12.4742 2.15285C12.4664 2.14104 12.4581 2.12855 12.4502 2.11719C12.4507 2.13377 12.4611 2.14513 12.4742 2.15285Z" fill="#7C6A0A"/><path d="M10.8673 9.5619C11.3851 9.01329 11.7957 8.36219 12.3935 7.88976C12.4293 7.47825 12.7257 7.65917 12.6197 7.29642C12.7886 7.21911 12.8119 7.34048 12.9589 7.24249C12.8072 6.88738 13.2105 6.88693 13.1285 6.54127C13.2828 6.53655 13.2423 6.63117 13.3546 6.54127C13.4432 6.1529 13.9742 5.64609 13.92 4.97701C13.9947 4.97768 13.9716 5.07163 14.0328 5.08489C15.0318 2.94438 13.3645 0.762283 11.1495 0.5C10.9611 0.5 10.7726 0.5 10.5844 0.5C9.57831 0.607655 8.88599 1.0821 8.26646 1.68668C7.84197 2.41734 7.38451 3.2107 7.5315 4.16791C7.84056 6.17964 9.91988 8.15564 10.8673 9.5619ZM8.32299 3.30487C8.56256 1.83052 10.5502 0.761384 12.1674 1.74062C12.0319 2.04425 12.4359 1.85951 12.5631 2.1182C12.5535 2.16539 12.504 2.17146 12.4739 2.15348C12.6152 2.36452 12.8006 2.65422 13.0157 2.71131C13.0091 2.91808 13.1089 3.61188 13.3546 4.00587C13.0444 3.92945 13.1808 4.32007 13.0157 4.76103C12.8913 5.09276 12.4904 5.84859 12.2807 6.2174C12.1497 6.44777 11.8791 6.86423 11.7719 7.0265C11.7629 7.03999 11.6774 6.94761 11.6588 6.97256C11.3698 7.35913 11.1874 7.82953 10.9239 8.15924C10.5571 7.99382 10.3571 7.49758 10.0193 7.08044C9.33992 6.241 8.07518 4.83272 8.32299 3.30487Z" fill="#7C6A0A"/><path d="M11.3192 4.92222C11.9447 4.68578 12.2229 3.63081 11.9498 3.00263C11.9637 3.01994 11.9899 3.02488 11.9977 2.98016C11.9534 2.96824 11.9319 2.93498 11.9411 2.87228C11.5581 2.57583 10.9098 2.29579 10.3016 2.54864C8.96548 3.10422 9.42106 5.35149 11.3192 4.92222ZM10.3581 3.78948C10.5492 3.68407 10.7513 3.58923 11.0366 3.57372C11.1977 3.67463 11.1977 4.12009 11.0366 4.221C10.6488 4.23111 10.3697 4.13807 10.3581 3.78948Z" fill="#7C6A0A"/><path d="M14.5419 5.24847C14.3476 5.22487 14.2251 5.26982 14.0896 5.30241C13.9671 6.14455 14.6604 6.56573 14.9377 7.35213C15.3329 8.47273 15.3 10.6541 14.6552 11.7213C14.6383 12.1699 14.1815 12.6904 13.8432 13.0547C13.8668 13.0392 13.8915 13.0392 13.9203 13.0698C13.6322 13.3336 13.3983 14.0274 13.1288 13.7707C13.0656 13.8962 13.141 13.9153 13.0159 14.0404C12.1757 14.1133 12.1535 14.9244 11.4895 14.9574C11.5616 14.8824 11.7665 14.934 11.7722 14.7956C11.257 15.0774 10.6271 15.2496 10.1326 15.5508C9.6853 15.1714 8.94799 15.8209 8.54965 15.4968C7.38526 15.5822 6.4145 15.1968 5.38367 14.7956C5.31018 14.6691 5.41241 14.6749 5.2706 14.5798C4.59901 14.2746 4.02683 13.9177 3.68761 13.501C3.80304 13.5168 3.79856 13.6469 3.91375 13.6629C3.70787 13.1938 3.0702 12.8499 3.06573 12.3683C4.63058 12.2072 6.1151 11.9696 7.36241 11.5053C7.19233 11.7786 7.18055 12.1195 7.30587 12.476C8.16709 12.896 8.38287 12.0449 8.66272 11.4511C8.81395 11.1302 9.16094 10.5937 9.115 10.3184C9.05658 9.96866 8.62927 9.95383 8.38004 9.77897C7.90538 9.44612 7.27619 8.56802 6.74052 8.64623C6.50778 8.68017 6.27787 8.93639 6.28824 9.18563C6.31014 9.71312 7.33555 9.94911 7.58855 10.3723C6.02229 10.8787 4.46073 11.4037 2.3873 11.2893C2.4085 10.8288 2.14938 10.3923 2.10463 9.94079C1.96023 8.48509 2.57458 7.07164 3.00919 6.32659C3.89585 4.80729 5.56718 3.8103 7.13627 3.25202C7.25334 2.94906 7.10282 2.70565 6.91013 2.5508C5.98106 2.49529 5.27225 3.23898 4.70525 3.46778C4.28971 3.63544 4.00021 3.82536 3.68761 4.11506C2.24055 5.45591 1.20383 7.18626 1.25613 9.72548C0.667688 10.0541 -0.107317 10.4622 0.0123492 11.1819C0.115055 11.7999 0.933168 12.0058 1.70841 12.0988C2.94912 14.2351 4.54247 16.0021 7.47501 16.414C14.3407 17.3784 18.3156 10.0354 14.5419 5.24847ZM0.747308 10.9661C0.947537 10.8593 1.144 10.8789 1.31266 10.9122C1.29994 11.1041 1.35082 11.2353 1.48227 11.29C1.25353 11.3805 0.787354 11.2347 0.747308 10.9661Z" fill="#7C6A0A"/><path d="M13.7977 13.1025C13.7124 13.1939 13.6362 13.2746 13.5806 13.339C13.6801 13.3334 13.7393 13.1874 13.7977 13.1025Z" fill="#7C6A0A"/></symbol>
	<symbol id="HeaderMiniIconDesk" xmlns="http://www.w3.org/2000/svg" fill="none"><path d="M18.7105 2.48067C18.6988 2.46314 18.6865 2.44459 18.6748 2.42773C18.6755 2.45235 18.6911 2.4692 18.7105 2.48067Z" fill="#7C6A0A"/><path d="M16.3006 13.5941C17.0773 12.7711 17.6931 11.7944 18.5899 11.0857C18.6436 10.4684 19.0882 10.7398 18.9291 10.1956C19.1825 10.0796 19.2175 10.2617 19.438 10.1147C19.2104 9.58198 19.8153 9.5813 19.6924 9.06276C19.9238 9.05568 19.863 9.19762 20.0316 9.06276C20.1644 8.48015 20.9609 7.71986 20.8796 6.71615C20.9916 6.71716 20.957 6.85809 21.0489 6.87798C22.5474 3.66691 20.0464 0.393461 16.7239 0C16.4412 0 16.1586 0 15.8762 0C14.3671 0.161498 13.3286 0.873234 12.3993 1.78018C11.7626 2.87628 11.0764 4.06644 11.2969 5.50239C11.7605 8.52027 14.8795 11.4845 16.3006 13.5941ZM12.4841 4.20771C12.8435 1.99596 15.825 0.392112 18.2507 1.8611C18.0476 2.3166 18.6535 2.03946 18.8443 2.42752C18.8299 2.49833 18.7557 2.50743 18.7104 2.48046C18.9224 2.79705 19.2005 3.23164 19.5231 3.31728C19.5132 3.62746 19.663 4.66826 20.0316 5.2593C19.5662 5.14467 19.7708 5.73064 19.5231 6.39214C19.3366 6.88979 18.7352 8.02364 18.4207 8.57691C18.2242 8.9225 17.8182 9.54725 17.6575 9.79068C17.644 9.81091 17.5158 9.67234 17.4879 9.70976C17.0543 10.2897 16.7808 10.9953 16.3854 11.4899C15.8353 11.2418 15.5353 10.4974 15.0286 9.87159C14.0095 8.61232 12.1124 6.4997 12.4841 4.20771Z" fill="#7C6A0A"/><path d="M16.9791 6.63514C17.9172 6.28045 18.3345 4.69784 17.925 3.75549C17.9459 3.78145 17.9851 3.78887 17.9967 3.72177C17.9303 3.70391 17.8982 3.65401 17.9119 3.55994C17.3374 3.11523 16.365 2.69513 15.4526 3.07443C13.4485 3.90788 14.1318 7.27911 16.9791 6.63514ZM15.5375 4.93587C15.824 4.77775 16.1272 4.63547 16.5551 4.6122C16.7968 4.76359 16.7968 5.43183 16.5551 5.58321C15.9735 5.59839 15.5548 5.4588 15.5375 4.93587Z" fill="#7C6A0A"/><path d="M21.8129 7.12065C21.5214 7.08524 21.3376 7.15268 21.1345 7.20156C20.9507 8.46489 21.9906 9.09672 22.4065 10.2764C22.9994 11.9575 22.9499 15.2299 21.9828 16.8307C21.9574 17.5037 21.2723 18.2846 20.7649 18.8311C20.8002 18.8078 20.8373 18.8078 20.8804 18.8537C20.4483 19.2495 20.0974 20.2903 19.6932 19.9053C19.5985 20.0934 19.7115 20.1221 19.5239 20.3099C18.2635 20.4191 18.2303 21.6359 17.2342 21.6855C17.3424 21.5728 17.6498 21.6504 17.6582 21.4427C16.8855 21.8655 15.9406 22.1238 15.199 22.5755C14.528 22.0064 13.422 22.9808 12.8245 22.4946C11.0779 22.6227 9.62175 22.0445 8.07551 21.4427C7.96527 21.2529 8.11862 21.2616 7.9059 21.119C6.89851 20.6612 6.04024 20.1258 5.53142 19.5007C5.70456 19.5243 5.69785 19.7195 5.87063 19.7434C5.56181 19.0398 4.6053 18.5239 4.59859 17.8014C6.94586 17.5597 9.17265 17.2033 11.0436 16.5067C10.7885 16.9167 10.7708 17.4282 10.9588 17.9629C12.2506 18.5931 12.5743 17.3162 12.9941 16.4255C13.2209 15.944 13.7414 15.1392 13.6725 14.7262C13.5849 14.2016 12.9439 14.1793 12.5701 13.917C11.8581 13.4177 10.9143 12.1004 10.1108 12.2178C9.76167 12.2687 9.41681 12.653 9.43235 13.0269C9.46522 13.8183 11.0033 14.1723 11.3828 14.8071C9.03343 15.5667 6.6911 16.3543 3.58095 16.1827C3.61276 15.4919 3.22407 14.8371 3.15694 14.1598C2.94034 11.976 3.86186 9.85566 4.51379 8.73798C5.84378 6.45881 8.35077 4.96318 10.7044 4.12569C10.88 3.6712 10.6542 3.30606 10.3652 3.07376C8.97159 2.99048 7.90838 4.10613 7.05787 4.44936C6.43457 4.70088 6.00031 4.98577 5.53142 5.42037C3.36082 7.43184 1.80575 10.0276 1.88419 13.8368C1.00153 14.3297 -0.160976 14.942 0.0185238 16.0216C0.172582 16.9487 1.39975 17.2576 2.56261 17.3972C4.42368 20.6018 6.81371 23.2526 11.2125 23.8706C21.5111 25.3173 27.4735 14.3017 21.8129 7.12065ZM1.12096 15.6979C1.42131 15.5377 1.716 15.5671 1.96899 15.617C1.94991 15.9049 2.02623 16.1018 2.2234 16.1837C1.8803 16.3196 1.18103 16.1008 1.12096 15.6979Z" fill="#7C6A0A"/><path d="M20.6963 18.9043C20.5684 19.0412 20.4542 19.1622 20.3708 19.2586C20.52 19.2502 20.6087 19.0314 20.6963 18.9043Z" fill="#7C6A0A"/></symbol>
	<symbol id="FindIcon" xmlns="http://www.w3.org/2000/svg" fill="none"><g clip-path="url(#clip0_1066_903)"><path fill-rule="evenodd" clip-rule="evenodd" d="M9.815 0.471629C9.15915 0.427638 8.27588 0.543545 7.88704 0.609341C7.28474 0.817822 6.68952 1.03376 6.23449 1.38971C6.11725 1.36561 6.07383 1.32889 6.00497 1.43561C6.10252 1.69153 5.26229 1.89465 5.27051 2.12417C5.30169 2.07349 5.42314 1.88605 5.45413 1.98646C5.41128 2.21254 5.07198 2.13775 5.1787 2.30779C5.14447 2.14062 5.30475 2.25309 5.27051 2.35369C4.82907 2.23951 4.73152 2.83683 4.55173 3.07094C4.56187 3.06157 4.57124 3.05086 4.58195 3.04225C4.56206 3.08204 4.54217 3.12201 4.49339 3.13291C4.32833 3.32437 4.24111 3.61605 4.26081 3.86852C4.16078 3.89779 4.11469 3.73846 4.1231 3.91443C3.79738 4.41249 3.79776 5.05744 3.66406 5.9342C3.66406 6.08722 3.66406 6.24023 3.66406 6.39324C3.81249 6.61205 3.87331 6.91846 3.98539 7.17361C3.92323 7.18145 3.89358 6.94027 3.84768 7.0818C4.31513 9.22303 5.41626 10.9079 6.23469 12.6821C6.75264 13.805 7.48213 15.0238 8.07084 15.9872C8.38376 16.4992 8.80588 17.6902 9.49387 17.6397C10.017 17.6013 10.5684 16.4558 10.871 15.8954C11.3132 15.0764 11.5875 14.4358 11.9268 13.7838C12.0025 13.6384 12.193 13.4762 12.2483 13.3706C12.4113 13.0595 12.4864 12.6559 12.6155 12.4067C12.8267 11.9993 13.0371 11.6567 13.258 11.2134C14.0007 9.72262 14.7975 7.79293 15.0483 6.02601C15.0483 6.01071 15.0483 5.99541 15.0483 5.98011C14.8444 3.0457 12.7508 0.668442 9.815 0.471629ZM13.3039 9.65243C12.0995 12.1574 10.7924 14.7738 9.44796 16.9053C8.86728 16.1545 8.56967 15.1211 7.97904 14.3805C7.9666 14.1902 8.03929 14.2015 7.97904 14.0592C7.71566 14.0282 7.72044 13.4711 7.33638 13.1868C7.35245 12.9669 7.4739 13.285 7.5659 13.2786C7.25701 13.0109 7.37444 12.5702 6.92325 12.3147C7.19236 12.4438 6.84368 11.8195 6.60192 11.7638C6.63979 11.6236 6.73102 11.6536 6.64782 11.4884C6.35442 11.047 6.15301 10.3286 5.72974 9.78995C5.83876 9.55775 5.53408 9.25 5.31661 9.00958C5.30876 8.81602 5.38718 9.01034 5.45432 9.00958C4.79655 7.55194 4.28836 5.74313 4.94937 4.00604C5.39694 3.51678 5.60427 2.87164 6.09697 2.44531C6.67594 1.94419 7.35991 1.68292 8.07084 1.29771C10.1126 0.841347 12.0415 1.65117 13.1662 2.76664C13.6352 3.42306 13.9846 4.02249 14.2679 4.78641C14.6169 6.42901 13.928 8.3543 13.3039 9.65243Z" fill="white"/><path fill-rule="evenodd" clip-rule="evenodd" d="M7.93299 3.17999C7.87236 3.17941 7.8911 3.09965 7.84118 3.08818C7.61568 3.25228 7.57016 3.5629 7.10672 3.50131C7.05106 3.64457 7.1312 3.69889 7.01491 3.82264C7.00975 3.76679 7.00114 3.714 6.9231 3.73083C7.04877 3.93338 6.75077 3.863 6.8313 4.14397C6.76913 4.12962 6.7437 4.07856 6.64768 4.09807C6.41663 4.64891 6.04022 5.09743 6.28045 5.56699C6.21484 5.55609 6.20299 5.49144 6.14274 5.47518C5.62766 8.40845 9.0607 10.267 11.3299 8.68846C11.2907 8.54195 11.4022 8.54635 11.4217 8.45894C12.2812 7.98728 12.7722 6.41717 12.5693 5.33747C12.2191 3.47281 9.95009 2.23092 7.93299 3.17999ZM8.89698 8.55075C8.59898 8.33634 8.31438 8.21795 8.0248 8.09171C8.02078 7.96643 8.10131 7.99933 8.0248 7.9081C8.01141 8.01693 7.96359 7.954 7.88709 7.9999C7.80389 7.68087 7.73905 7.60628 7.42805 7.49496C7.47051 7.18817 7.1641 6.77197 6.96901 6.43917C6.88141 6.40723 7.01855 6.36763 7.01491 6.43917C6.96633 5.80053 7.17385 5.01251 7.47395 4.4653C7.72241 4.4192 7.80503 4.10839 8.0248 3.96035C8.84399 3.40874 10.0314 3.49596 11.0086 4.00626C11.0726 4.20231 11.2773 4.25777 11.4217 4.37349C12.8214 6.07136 11.3238 9.14444 8.89698 8.55075Z" fill="white"/><path fill-rule="evenodd" clip-rule="evenodd" d="M8.75928 5.20012C8.7675 5.02416 8.7216 5.18348 8.62156 5.15422C8.62979 5.33783 8.42246 5.37073 8.34614 5.56735C8.05848 6.3087 8.79504 7.16653 9.49374 7.12809C10.0452 7.0971 10.5669 6.27504 10.3659 5.65916C10.1693 5.05686 9.21506 4.87994 8.75928 5.20012Z" fill="white"/></g><defs><clipPath id="clip0_1066_903"><rect width="17.0763" height="17.0763" fill="white" transform="translate(0.461914 0.461914)"/></clipPath></defs></symbol>
	<symbol id="LivinRioIconExl" xmlns="http://www.w3.org/2000/svg" fill="none"><path fill-rule="evenodd" clip-rule="evenodd" d="M45.6471 55.6272C56.9441 54.3222 68.3726 53.1822 80 52.3017C68.9529 50.5218 57.0882 49.7647 46.3539 48.3715C49.1588 43.7132 51.6373 38.633 55.5294 35.3717C55.4471 34.9484 55.1157 35.3452 55.0598 35.674C55.65 32.2716 58.3853 32.2414 58.1186 29.3252C56.4 28.5896 55.9333 31.9139 54.3539 32.3484C54.6784 31.4566 55.4402 31.124 55.7647 30.2322C54.048 31.3634 54.4853 33.0312 53.4127 34.1624C52.2373 34.0289 53.9314 33.525 53.6471 32.6508C52.5843 33.1231 52.95 33.8865 52.7059 34.4647C48.602 36.5936 47.652 39.841 45.6471 42.3251C45.0716 41.9497 46.3529 41.4458 46.3539 40.8135C44.8451 40.457 44.6 44.7122 43.7647 43.232C43.501 35.8176 43.1157 22.5721 41.8824 13.9068C41.9833 13.316 42.5549 14.4019 42.3529 12.9998C41.7637 8.95755 41.5549 6.15099 40.9412 2.41858C41.7863 3.64046 41.4 1.40454 41.4118 0C40.7843 0 40.1569 0 39.5294 0C38.8539 14.4548 37.4824 29.6112 37.4118 43.8367C33.2098 39.424 27.7647 34.0881 23.5294 28.7206C21.202 29.9651 23.6686 32.4669 24.4706 33.5577C27.6578 37.8948 31.8745 43.6641 34.1176 47.7669C22.4196 49.0228 11.8892 50.416 0 51.0924C0 51.7978 0 52.5032 0 53.2087C11.6118 53.3976 22.2412 55.4647 34.3529 55.9296C32.7667 59.143 29.2471 65.008 26.5882 68.6271C25.0235 70.7559 20.1716 73.3786 23.7647 75.5817C27.6549 69.2934 33.0343 63.3062 37.6471 58.954C38.3402 73.7754 40.0824 87.5134 39.5294 104C40.0784 104 40.6275 104 41.1765 104C41.4275 89.4923 41.9804 73.3962 43.5294 58.954C48.5157 63.8328 53.1431 69.1738 57.1765 75.2794C57.7961 74.9658 57.9686 74.0802 58.5873 73.7678C53.998 68.2769 48.9657 61.743 45.6471 55.6272Z" fill="#FFA500"/></symbol>
	<symbol id="LivinRioIconXxl" xmlns="http://www.w3.org/2000/svg" fill="none"><path fill-rule="evenodd" clip-rule="evenodd" d="M63.9059 85.5804C79.7218 83.5726 95.7216 81.8188 112 80.4641C96.5341 77.7258 79.9235 76.5611 64.8955 74.4177C68.8223 67.2511 72.2922 59.4353 77.7412 54.4179C77.6259 53.7668 77.162 54.3773 77.0837 54.8831C77.91 49.6486 81.7394 49.6021 81.3661 45.1157C78.96 43.984 78.3067 49.0982 76.0955 49.7668C76.5498 48.3948 77.6163 47.8831 78.0706 46.5111C75.6673 48.2514 76.2794 50.8172 74.7778 52.5575C73.1322 52.3521 75.5039 51.5769 75.1059 50.232C73.618 50.9587 74.13 52.1331 73.7882 53.0226C68.0427 56.2978 66.7127 61.2938 63.9059 65.1155C63.1002 64.538 64.8941 63.7628 64.8955 62.7899C62.7831 62.2415 62.44 68.7879 61.2706 66.5108C60.9014 55.104 60.362 34.7263 58.6353 21.3951C58.7767 20.4862 59.5769 22.1567 59.2941 19.9998C58.4692 13.7808 58.1769 9.46306 57.3176 3.72089C58.5008 5.60071 57.96 2.16083 57.9765 0C57.098 0 56.2196 0 55.3412 0C54.3955 22.2381 52.4753 45.5557 52.3765 67.4411C46.4937 60.6524 38.8706 52.4432 32.9412 44.1855C29.6827 46.1002 33.1361 49.949 34.2588 51.6273C38.721 58.2997 44.6243 67.1756 47.7647 73.4875C31.3875 75.4196 16.6449 77.563 0 78.6037C0 79.689 0 80.7742 0 81.8595C16.2565 82.1502 31.1376 85.3304 48.0941 86.0455C45.8733 90.9892 40.9459 100.012 37.2235 105.58C35.0329 108.855 28.2402 112.89 33.2706 116.28C38.7169 106.605 46.248 97.3942 52.7059 90.6985C53.6763 113.501 56.1153 134.636 55.3412 160C56.1098 160 56.8784 160 57.6471 160C57.9984 137.68 58.7726 112.917 60.9412 90.6985C67.922 98.2042 74.4004 106.421 80.0471 115.814C80.9145 115.332 81.1561 113.97 82.0222 113.489C75.5973 105.041 68.552 94.9892 63.9059 85.5804Z" fill="#FFA500"/></symbol>
	<symbol id="LivinRioIcon" xmlns="http://www.w3.org/2000/svg" fill="none"><path fill-rule="evenodd" clip-rule="evenodd" d="M25.1059 28.8834C31.3193 28.2058 37.6049 27.6138 44 27.1566C37.9241 26.2325 31.3985 25.8394 25.4947 25.116C27.0374 22.6973 28.4005 20.0594 30.5412 18.3661C30.4959 18.1463 30.3136 18.3523 30.2829 18.523C30.6075 16.7564 32.1119 16.7407 31.9652 15.2266C31.02 14.8446 30.7633 16.5707 29.8947 16.7963C30.0731 16.3332 30.4921 16.1606 30.6706 15.6975C29.7264 16.2848 29.9669 17.1508 29.377 17.7382C28.7305 17.6688 29.6623 17.4072 29.5059 16.9533C28.9214 17.1986 29.1225 17.5949 28.9882 17.8951C26.7311 19.0005 26.2086 20.6867 25.1059 21.9765C24.7894 21.7816 25.4941 21.5199 25.4947 21.1916C24.6648 21.0065 24.53 23.2159 24.0706 22.4474C23.9255 18.5976 23.7136 11.7201 23.0353 7.22084C23.0908 6.91409 23.4052 7.47789 23.2941 6.74992C22.97 4.65103 22.8552 3.19378 22.5176 1.2558C22.9825 1.89024 22.77 0.729279 22.7765 0C22.4314 0 22.0863 0 21.7412 0C21.3697 7.50536 20.6153 15.375 20.5765 22.7614C18.2654 20.4702 15.2706 17.6996 12.9412 14.9126C11.6611 15.5588 13.0177 16.8578 13.4588 17.4242C15.2118 19.6761 17.531 22.6717 18.7647 24.802C12.3308 25.4541 6.53907 26.1775 0 26.5287C0 26.895 0 27.2613 0 27.6276C6.38647 27.7257 12.2326 28.799 18.8941 29.0403C18.0217 30.7089 16.0859 33.7542 14.6235 35.6333C13.7629 36.7387 11.0944 38.1004 13.0706 39.2444C15.2102 35.9793 18.1689 32.8705 20.7059 30.6108C21.0871 38.3064 22.0453 45.4396 21.7412 54C22.0431 54 22.3451 54 22.6471 54C22.7851 46.4672 23.0892 38.1096 23.9412 30.6108C26.6836 33.1439 29.2287 35.9172 31.4471 39.0874C31.7878 38.9245 31.8827 38.4647 32.223 38.3025C29.6989 35.4515 26.9311 32.0588 25.1059 28.8834Z" fill="#FFA500"/></symbol>
	<symbol id="LivinRioBgStar" xmlns="http://www.w3.org/2000/svg" fill="none"><path fill-rule="evenodd" clip-rule="evenodd" d="M13.6941 17.1161C17.0832 16.7145 20.5118 16.3638 24 16.0928C20.6859 15.5452 17.1265 15.3122 13.9062 14.8835C14.7476 13.4502 15.4912 11.8871 16.6588 10.8836C16.6341 10.7534 16.5347 10.8755 16.5179 10.9766C16.695 9.92972 17.5156 9.92042 17.4356 9.02315C16.92 8.79679 16.78 9.81965 16.3062 9.95337C16.4035 9.67895 16.6321 9.57663 16.7294 9.30221C16.2144 9.65027 16.3456 10.1634 16.0238 10.5115C15.6712 10.4704 16.1794 10.3154 16.0941 10.0464C15.7753 10.1917 15.885 10.4266 15.8118 10.6045C14.5806 11.2596 14.2956 12.2588 13.6941 13.0231C13.5215 12.9076 13.9059 12.7526 13.9062 12.558C13.4535 12.4483 13.38 13.7576 13.1294 13.3022C13.0503 11.0208 12.9347 6.94527 12.5647 4.27902C12.595 4.09724 12.7665 4.43134 12.7059 3.99995C12.5291 2.75617 12.4665 1.89261 12.2824 0.744177C12.5359 1.12014 12.42 0.432165 12.4235 0C12.2353 0 12.0471 0 11.8588 0C11.6562 4.44762 11.2447 9.11113 11.2235 13.4882C9.96294 12.1305 8.32941 10.4886 7.05882 8.8371C6.36059 9.22004 7.10059 9.9898 7.34118 10.3255C8.29735 11.6599 9.56235 13.4351 10.2353 14.6975C6.72588 15.0839 3.56676 15.5126 0 15.7207C0 15.9378 0 16.1548 0 16.3719C3.48353 16.43 6.67235 17.0661 10.3059 17.2091C9.83 18.1978 8.77412 20.0025 7.97647 21.116C7.50706 21.7711 6.05147 22.578 7.12941 23.2559C8.29647 21.3211 9.91029 19.4788 11.2941 18.1397C11.5021 22.7001 12.0247 26.9272 11.8588 32C12.0235 32 12.1882 32 12.3529 32C12.4282 27.5361 12.5941 22.5835 13.0588 18.1397C14.5547 19.6409 15.9429 21.2842 17.1529 23.1629C17.3388 23.0664 17.3906 22.7939 17.5762 22.6978C16.1994 21.0083 14.6897 18.9978 13.6941 17.1161Z" fill="#FA9500"/></symbol>
	<symbol id="LivinRioBgStarLg" xmlns="http://www.w3.org/2000/svg" fill="none"><path fill-rule="evenodd" clip-rule="evenodd" d="M18.2588 21.3951C22.7776 20.8932 27.349 20.4547 32 20.116C27.5812 19.4315 22.8353 19.1403 18.5416 18.6044C19.6635 16.8128 20.6549 14.8588 22.2118 13.6045C22.1788 13.4417 22.0463 13.5943 22.0239 13.7208C22.26 12.4122 23.3541 12.4005 23.2474 11.2789C22.56 10.996 22.3733 12.2746 21.7416 12.4417C21.8714 12.0987 22.1761 11.9708 22.3059 11.6278C21.6192 12.0628 21.7941 12.7043 21.3651 13.1394C20.8949 13.088 21.5725 12.8942 21.4588 12.558C21.0337 12.7397 21.18 13.0333 21.0824 13.2557C19.4408 14.0744 19.0608 15.3235 18.2588 16.2789C18.0286 16.1345 18.5412 15.9407 18.5416 15.6975C17.938 15.5604 17.84 17.197 17.5059 16.6277C17.4004 13.776 17.2463 8.68158 16.7529 5.34877C16.7933 5.12155 17.022 5.53918 16.9412 4.99994C16.7055 3.44521 16.622 2.36577 16.3765 0.930221C16.7145 1.40018 16.56 0.540207 16.5647 0C16.3137 0 16.0627 0 15.8118 0C15.5416 5.55953 14.9929 11.3889 14.9647 16.8603C13.2839 15.1631 11.1059 13.1108 9.41177 11.0464C8.48078 11.5251 9.46745 12.4873 9.78823 12.9068C11.0631 14.5749 12.7498 16.7939 13.6471 18.3719C8.96784 18.8549 4.75569 19.3908 0 19.6509C0 19.9222 0 20.1936 0 20.4649C4.64471 20.5375 8.89647 21.3326 13.7412 21.5114C13.1067 22.7473 11.6988 25.0031 10.6353 26.395C10.0094 27.2138 8.06863 28.2225 9.50588 29.0699C11.062 26.6513 13.2137 24.3485 15.0588 22.6746C15.3361 28.3751 16.0329 33.659 15.8118 40C16.0314 40 16.251 40 16.4706 40C16.571 34.4201 16.7922 28.2293 17.4118 22.6746C19.4063 24.5511 21.2573 26.6053 22.8706 28.9536C23.1184 28.833 23.1875 28.4924 23.4349 28.3722C21.5992 26.2603 19.5863 23.7473 18.2588 21.3951Z" fill="#FA9500"/></symbol>
	<symbol id="LivinRioBgStarXl" xmlns="http://www.w3.org/2000/svg" fill="none"><path fill-rule="evenodd" clip-rule="evenodd" d="M27.3882 29.9531C34.1665 29.2504 41.0235 28.6366 48 28.1625C41.3718 27.204 34.2529 26.7964 27.8124 26.0462C29.4953 23.5379 30.9824 20.8024 33.3176 19.0463C33.2682 18.8184 33.0694 19.032 33.0359 19.2091C33.39 17.377 35.0312 17.3607 34.8712 15.7905C33.84 15.3944 33.56 17.1844 32.6124 17.4184C32.8071 16.9382 33.2641 16.7591 33.4588 16.2789C32.4288 16.888 32.6912 17.786 32.0476 18.3951C31.3424 18.3232 32.3588 18.0519 32.1882 17.5812C31.5506 17.8355 31.77 18.2466 31.6235 18.5579C29.1612 19.7042 28.5912 21.4528 27.3882 22.7904C27.0429 22.5883 27.8118 22.317 27.8124 21.9765C26.9071 21.7845 26.76 24.0758 26.2588 23.2788C26.1006 19.2864 25.8694 12.1542 25.1294 7.48828C25.19 7.17017 25.5329 7.75485 25.4118 6.99992C25.0582 4.82329 24.9329 3.31207 24.5647 1.30231C25.0718 1.96025 24.84 0.756289 24.8471 0C24.4706 0 24.0941 0 23.7176 0C23.3124 7.78334 22.4894 15.9445 22.4471 23.6044C19.9259 21.2283 16.6588 18.3551 14.1176 15.4649C12.7212 16.1351 14.2012 17.4822 14.6824 18.0696C16.5947 20.4049 19.1247 23.5114 20.4706 25.7206C13.4518 26.3969 7.13353 27.1471 0 27.5113C0 27.8911 0 28.271 0 28.6508C6.96706 28.7526 13.3447 29.8656 20.6118 30.1159C19.66 31.8462 17.5482 35.0043 15.9529 36.953C15.0141 38.0993 12.1029 39.5115 14.2588 40.6979C16.5929 37.3119 19.8206 34.088 22.5882 31.7445C23.0041 39.7252 24.0494 47.1226 23.7176 56C24.0471 56 24.3765 56 24.7059 56C24.8565 48.1882 25.1882 39.521 26.1176 31.7445C29.1094 34.3715 31.8859 37.2474 34.3059 40.5351C34.6776 40.3662 34.7812 39.8893 35.1524 39.7211C32.3988 36.7645 29.3794 33.2462 27.3882 29.9531Z" fill="#FA9500"/></symbol>
	<symbol id="CloseSearchIcon" xmlns="http://www.w3.org/2000/svg" fill="none"><rect width="24" height="24" rx="4" fill="#252D29" fill-opacity="0.05"/><path d="M17.3957 7.81286C17.7295 7.47912 17.7295 6.93802 17.3957 6.60429C17.062 6.27055 16.5209 6.27055 16.1871 6.60429L12 10.7914L7.81286 6.60429C7.47912 6.27055 6.93802 6.27055 6.60429 6.60429C6.27055 6.93802 6.27055 7.47912 6.60429 7.81286L10.7914 12L6.60429 16.1871C6.27055 16.5209 6.27055 17.062 6.60429 17.3957C6.93802 17.7295 7.47912 17.7295 7.81286 17.3957L12 13.2086L16.1871 17.3957C16.5209 17.7295 17.062 17.7295 17.3957 17.3957C17.7295 17.062 17.7295 16.5209 17.3957 16.1871L13.2086 12L17.3957 7.81286Z" fill="#252D29"/></symbol>
</symbol>
</svg>
